<?xml version="1.0" encoding="UTF-8" standalone="no"?>
<!-- Created with Inkscape (http://www.inkscape.org/) -->
<svg xmlns:dc="http://purl.org/dc/elements/1.1/" xmlns:cc="http://creativecommons.org/ns#" xmlns:rdf="http://www.w3.org/1999/02/22-rdf-syntax-ns#" xmlns:svg="http://www.w3.org/2000/svg" xmlns="http://www.w3.org/2000/svg" xmlns:inkscape="http://www.inkscape.org/namespaces/inkscape" xmlns:sodipodi="http://sodipodi.sourceforge.net/DTD/sodipodi-0.dtd" xmlns:ns1="http://sozi.baierouge.fr" version="1.1" width="56" height="48" id="svg2" inkscape:version="0.91 r13725" xmlns:xlink="http://www.w3.org/1999/xlink">
  <defs id="defs4"/>
  <metadata id="metadata7">
    <rdf:RDF>
      <cc:Work rdf:about="">
        <dc:format>image/svg+xml</dc:format>
        <dc:type rdf:resource="http://purl.org/dc/dcmitype/StillImage"/>
        <dc:title/>
      </cc:Work>
    </rdf:RDF>
  </metadata>
  <g transform="translate(-469.68524,-502.69582)" id="layer1">
    <g transform="translate(85.788391,2.8338508)" id="g3806">
      <path d="m 399.89685,545.86197 0,-2 -2,0 -2,0 0,-2 0,-2 -4,0 -4,0 0,-2 0,-2 -2,0 -2,0 0,-12 0,-12 2,0 2,0 0,-2 0,-2 2,0 2,0 0,-2 0,-2 2,0 2,0 0,-2 0,-2 4,0 4,0 0,2 0,2 8,0 8,0 0,-2 0,-2 4,0 4,0 0,2 0,2 2,0 2,0 0,2 0,2 2,0 2,0 0,2 0,2 2,0 2,0 0,12 0,12 -2,0 -2,0 0,2 0,2 -4,0 -4,0 0,2 0,2 -2,0 -2,0 0,2 0,2 -12,0 -12,0 0,-2 z" id="path3816" style="fill:#868686"/>
      <path d="m 399.89685,545.86197 0,-2 -2,0 -2,0 0,-2 0,-2 -4,0 -4,0 0,-2 0,-2 -2,0 -2,0 0,-12 0,-12 2,0 2,0 0,-2 0,-2 2,0 2,0 0,-2 0,-2 2,0 2,0 0,-2 0,-2 4,0 4,0 0,2 0,2 8,0 8,0 0,-2 0,-2 4,0 4,0 0,2 0,2 2,0 2,0 0,2 0,2 2,0 2,0 0,2 0,2 2,0 2,0 0,12 0,12 -2,0 -2,0 0,2 0,2 -4,0 -4,0 0,2 0,2 -2,0 -2,0 0,2 0,2 -12,0 -12,0 0,-2 z m 16,-4 0,-2 -2,0 -2,0 0,-2 0,-2 2,0 2,0 0,-2 0,-2 -2,0 -2,0 0,-2 0,-2 2,0 2,0 0,-2 0,-2 -2,0 -2,0 0,-2 0,-2 2,0 2,0 0,-2 0,-2 -2,0 -2,0 0,-2 0,-2 2,0 2,0 0,-2 0,-2 -2,0 -2,0 0,2 0,2 -2,0 -2,0 0,2 0,2 2,0 2,0 0,2 0,2 -2,0 -2,0 0,2 0,2 2,0 2,0 0,2 0,2 -2,0 -2,0 0,2 0,2 2,0 2,0 0,2 0,2 -2,0 -2,0 0,2 0,2 2,0 2,0 0,2 0,2 2,0 2,0 0,-2 z" id="path3814" style="fill:#4a4a4a"/>
      <path d="m 399.89685,545.86197 0,-2 -2,0 -2,0 0,-2 0,-2 -4,0 -4,0 0,-2 0,-2 -2,0 -2,0 0,-12 0,-12 2,0 2,0 0,-2 0,-2 2,0 2,0 0,-2 0,-2 2,0 2,0 0,-2 0,-2 4,0 4,0 0,2 0,2 8,0 8,0 0,-2 0,-2 4,0 4,0 0,2 0,2 2,0 2,0 0,2 0,2 2,0 2,0 0,2 0,2 2,0 2,0 0,12 0,12 -2,0 -2,0 0,2 0,2 -4,0 -4,0 0,2 0,2 -2,0 -2,0 0,2 0,2 -12,0 -12,0 0,-2 z m 24,-4 0,-2 -2,0 -2,0 0,-2 0,-2 -2,0 -2,0 0,-2 0,-2 4,0 4,0 0,-6 0,-6 4,0 4,0 0,6 0,6 2,0 2,0 0,-10 0,-10 -2,0 -2,0 0,-2 0,-2 -6,0 -6,0 0,2 0,2 -2,0 -2,0 0,-2 0,-2 -2,0 -2,0 0,2 0,2 -4,0 -4,0 0,-2 0,-2 -6,0 -6,0 0,2 0,2 -2,0 -2,0 0,10 0,10 2,0 2,0 0,-6 0,-6 4,0 4,0 0,6 0,6 4,0 4,0 0,2 0,2 -2,0 -2,0 0,2 0,2 -2,0 -2,0 0,2 0,2 12,0 12,0 0,-2 z" id="path3812" style="fill:#2c2c2c"/>
      <path d="m 399.89685,545.86197 0,-2 -2,0 -2,0 0,-2 0,-2 -4,0 -4,0 0,-2 0,-2 -2,0 -2,0 0,-12 0,-12 2,0 2,0 0,-2 0,-2 2,0 2,0 0,-2 0,-2 2,0 2,0 0,-2 0,-2 4,0 4,0 0,2 0,2 8,0 8,0 0,-2 0,-2 4,0 4,0 0,2 0,2 2,0 2,0 0,2 0,2 2,0 2,0 0,2 0,2 2,0 2,0 0,12 0,12 -2,0 -2,0 0,2 0,2 -4,0 -4,0 0,2 0,2 -2,0 -2,0 0,2 0,2 -12,0 -12,0 0,-2 z m 24,-4 0,-2 -2,0 -2,0 0,-2 0,-2 2,0 2,0 0,-8 0,-8 2,0 2,0 0,8 0,8 4,0 4,0 0,-12 0,-12 -2,0 -2,0 0,-2 0,-2 -2,0 -2,0 0,-2 0,-2 -4,0 -4,0 0,2 0,2 -8,0 -8,0 0,-2 0,-2 -4,0 -4,0 0,2 0,2 -2,0 -2,0 0,2 0,2 -2,0 -2,0 0,12 0,12 4,0 4,0 0,-8 0,-8 2,0 2,0 0,8 0,8 2,0 2,0 0,2 0,2 -2,0 -2,0 0,2 0,2 12,0 12,0 0,-2 z m -20,-8 0,-2 2,0 2,0 0,2 0,2 -2,0 -2,0 0,-2 z m 12,0 0,-2 2,0 2,0 0,2 0,2 -2,0 -2,0 0,-2 z" id="path3810" style="fill:#0e0e0e"/>
      <path d="m 399.89685,545.86197 0,-2 -2,0 -2,0 0,-2 0,-2 -4,0 -4,0 0,-2 0,-2 -2,0 -2,0 0,-12 0,-12 2,0 2,0 0,-2 0,-2 2,0 2,0 0,-2 0,-2 2,0 2,0 0,-2 0,-2 4,0 4,0 0,2 0,2 8,0 8,0 0,-2 0,-2 4,0 4,0 0,2 0,2 2,0 2,0 0,2 0,2 2,0 2,0 0,2 0,2 2,0 2,0 0,12 0,12 -2,0 -2,0 0,2 0,2 -4,0 -4,0 0,2 0,2 -2,0 -2,0 0,2 0,2 -12,0 -12,0 0,-2 z m 24,-14 0,-12 2,0 2,0 0,8 0,8 4,0 4,0 0,-12 0,-12 -2,0 -2,0 0,-2 0,-2 -2,0 -2,0 0,-2 0,-2 -4,0 -4,0 0,2 0,2 -8,0 -8,0 0,-2 0,-2 -4,0 -4,0 0,2 0,2 -2,0 -2,0 0,2 0,2 -2,0 -2,0 0,12 0,12 4,0 4,0 0,-8 0,-8 2,0 2,0 0,12 0,12 12,0 12,0 0,-12 z" id="path3808" style="fill:#000000"/>
    </g>
  </g>
</svg>
