<?xml version="1.0" encoding="UTF-8" standalone="no"?>
<svg id="svg4169" xmlns:rdf="http://www.w3.org/1999/02/22-rdf-syntax-ns#" xmlns="http://www.w3.org/2000/svg" height="326.61mm" width="286.25mm" version="1.1" xmlns:cc="http://creativecommons.org/ns#" xmlns:dc="http://purl.org/dc/elements/1.1/" viewBox="0 0 1014.2771 1157.2891">
<g id="layer1" transform="translate(1585 -710.83)">
<g id="g4746" transform="matrix(.46825 0 0 .46825 -842.83 993.37)">
<path id="path4140" d="m-957.37 1866.2c-5.956-2.5884-17.614-14.108-20.96-20.712-1.5926-3.1429-4.277-10.905-5.9653-17.25-1.6883-6.3445-3.3733-11.839-3.7443-12.21-1.9357-1.9356-12.469-3.1827-32.123-3.803-18.867-0.5955-24.267-0.3056-39.266 2.1082-20.196 3.2498-39.213 3.048-47.609-0.5054-5.945-2.5163-18.644-14.59-21.832-20.756-1.244-2.4062-3.449-8.3125-4.8999-13.125-1.451-4.8125-3.061-9.3696-3.578-10.127-0.5169-0.7574-4.8773-2.6628-9.6898-4.2343-11.506-3.7575-18.02-7.6396-24.361-14.519-8.7415-9.4833-9.9547-13.55-9.9862-33.478-0.015-9.547 0.611-22.203 1.3912-28.125 1.0774-8.1765 1.0621-12.467-0.064-17.835l-1.4825-7.0685-8.9986-2.1783c-13.086-3.1677-21.222-7.1164-28.295-13.732-7.5757-7.0861-11.656-13.795-14.425-23.719-5.5588-19.919-5.0206-19.05-12.81-20.668-5.1993-1.0793-8.7767-1.0981-13.882-0.072-3.7829 0.7597-15.362 1.3689-25.732 1.3538-22.561-0.032-25.412-0.9928-35.94-12.098-9.6649-10.196-10.286-12.968-9.1901-40.999 1.2656-32.365 1.2798-34.515 0.2605-39.548-1.0087-4.9818-2.0965-5.6464-15.235-9.3069-11.534-3.2135-18.104-7.0746-25.827-15.177-9.1413-9.5912-11.081-15.723-10.957-34.632 0.05-7.6096 0.6115-16.929 1.2472-20.711 2.3035-13.7 3.6713-48.765 2.4466-62.721-1.6371-18.655-2.2588-19.693-13.785-23.009-14.812-4.2611-18.886-6.4024-26.66-14.013-11.018-10.786-12.452-14.313-13.07-32.132-0.2857-8.25 0.1354-19.219 0.9358-24.375 4.0725-26.237 3.9577-72.394-0.2011-80.796-1.3393-2.7061-3.657-3.8902-12.996-6.6395-6.2512-1.8403-13.92-4.8432-17.043-6.673-8.3028-4.8658-16.831-14.918-19.079-22.49-2.475-8.3341-2.4815-33.134-0.012-47.152 2.8042-15.92 2.8203-577.31 0.017-594.37-1.0167-6.1875-1.8583-18.12-1.8703-26.516-0.028-19.719 1.9989-25.654 12.146-35.559 8.5864-8.3821 12.38-10.442 27.191-14.762l11.234-3.2771 1.6161-6.8178c1.3175-5.5579 1.3206-8.8964 0.017-18.068-0.8798-6.1875-1.5821-18.844-1.5607-28.125 0.036-15.734 0.2602-17.299 3.3127-23.15 4.0997-7.8576 14.181-17.399 21.861-20.692 3.2232-1.3816 11.244-3.3685 17.824-4.4154 16.503-2.6257 17.102-2.9563 19.465-10.749 2.8177-9.2908 7.2529-46.603 6.2972-52.977-0.4733-3.1564-2.7058-7.9565-5.5612-11.958-9.9733-13.975-10.634-16.085-11.136-35.574-0.5283-20.511 0.3717-23.325 10.609-33.163 6.7873-6.5227 11.086-8.9506 22.879-12.921l8.1592-2.747 3.8261-10.514c5.2542-14.439 6.7833-16.971 15.142-25.075 8.3192-8.066 13.324-10.818 26.961-14.828 9.1383-2.6867 9.7583-3.0969 11.113-7.3536 0.7892-2.4795 1.7843-17.164 2.2113-32.633 0.7161-25.937 1.0001-28.581 3.6514-33.991 4.4162-9.0112 16.804-19.841 27.77-24.277l9.1865-3.7162 3.8966-13.07c4.9906-16.74 6.2835-19.067 15.453-27.812 8.313-7.9284 13.882-10.856 26.811-14.094 4.6867-1.174 9.2868-2.9 10.222-3.8357 2.6135-2.6135 3.58-14.479 2.0289-24.908-1.7558-11.805-1.8083-40.891-0.085-47.096 2.9589-10.654 20.475-24.78 35.382-28.534 3.1512-0.79347 6.2341-2.0833 6.8509-2.8663s2.3988-5.3611 3.96-10.174c4.1948-12.93 7.041-18.022 14.159-25.33 9.2002-9.4455 15.555-11.545 34.944-11.545 8.3961 0.00012 19.674 0.84387 25.063 1.875 6.5425 1.2519 17.595 1.8748 33.267 1.8748 24.797 0 36.019-1.2969 38.356-4.4328 0.781-1.048 2.6302-6.7306 4.1094-12.628 1.4791-5.8974 3.7492-12.768 5.0446-15.268 3.2075-6.1904 15.884-18.377 21.573-20.741 6.4685-2.6867 37.66-2.6297 52.853 0.0965 9.9597 1.7872 22.145 1.9348 106.25 1.2865 77.414-0.59671 96.967-1.0866 105.62-2.646 15.722-2.8319 38.191-2.5591 46.541 0.56514 13.192 4.9356 23.675 19.34 27.917 38.358 1.1 4.9312 2.6563 9.8469 3.4585 10.924 2.6591 3.5697 13.26 4.5923 25.438 2.4538 7.3067-1.2832 16.076-1.7781 26.021-1.4687 17.443 0.54265 21.417 2.0698 30.803 11.837 7.4712 7.7742 9.3231 11.61 13.401 27.756l3.3544 13.283 7.2582 1.7297c6.1807 1.4729 8.4959 1.4729 15.596 0l8.3378-1.73 2.1403-8.5698c1.9319-7.7357 2.153-19.05 2.2713-116.25 0.1289-105.94 0.089-107.82-2.4834-116.05-2.6686-8.5474-4.9033-11.054-12.924-14.499-4.7566-2.0428-6.2816-1.9125-12.649 1.0803-5.6705 2.6655-7.896 6.2438-11.999 19.293-3.0477 9.6924-7.3833 16.515-14.941 23.512-11.746 10.875-14.505 11.396-55.027 10.398-18.226-0.44912-49.48-0.88468-69.455-0.96793-33.671-0.14034-36.722 0.0289-41.875 2.3222-7.5428 3.3569-12.392 8.6717-18.837 20.647-6.7952 12.625-14.619 21.424-22.685 25.511l-6.2331 3.1586-254.53 0.8348c-326.04 1.0693-296.1 1.1612-302.03-0.92635-7.2715-2.5612-19.972-15.322-25.798-25.921-7.9404-14.445-11.497-18.603-19.092-22.319l-6.9472-3.399-50.331 0.44999c-96.378 0.86167-93.038 0.96211-101.19-3.0428-9.9522-4.8872-18.496-14.623-23.494-26.77-2.2033-5.3553-4.7792-10.957-5.7242-12.448-0.9451-1.4908-7.4084-5.6863-14.363-9.3232-9.4252-4.9289-14.341-8.4447-19.307-13.809-9.5476-10.313-11.983-17.538-12.805-37.99-0.749-18.638 0.8344-30.473 5.2385-39.154 4.3856-8.6444 15.872-18.755 28.926-25.461l11.359-5.8354 5.4831-12.234c6.0425-13.482 15.282-24.718 24.299-29.553 4.9518-2.6549 5.7167-2.6807 79.375-2.6807 70.523 0 74.622-0.1229 79.151-2.3717 7.0494-3.501 11.371-8.4078 17.81-20.221 6.9503-12.75 16.136-23.138 23.696-26.798l5.5725-2.6976h277.35c273.89 0.001 277.41 0.032 282.2 2.4747 7.2064 3.6797 18 15.803 24.138 27.112 6.6998 12.343 12.857 18.436 21.551 21.323 6.1431 2.0405 11.807 2.1428 76.644 1.3853l70.011-0.8179 6.25 2.9456c3.6617 1.7258 9.3859 6.252 13.822 10.93 6.5776 6.9353 8.1195 9.544 11.738 19.859 5.0816 14.486 6.4986 16.884 11.506 19.474 8.5132 4.4023 20.372 0.4149 24.021-8.0769 4.3514-10.126 4.7289-14.429 2.5612-29.198-2.5892-17.64-2.0024-38.264 1.2719-44.7 2.7283-5.3624 11.385-14.572 15.954-16.975 4.5598-2.3975 23.689-2.3975 28.249 0 5.2739 2.7729 13.613 12.036 16.406 18.225 2.2125 4.9015 2.5387 8.1978 2.536 25.625 0 11-0.5817 22.511-1.289 25.58-1.5288 6.6348-3.1949 27.674-4.9033 61.92-0.8839 17.719-0.8329 31.553 0.1749 47.5 0.7837 12.4 1.7986 79.453 2.2608 149.38 0.6527 98.718 1.1999 128.04 2.4658 132.14 2.0147 6.5151 6.6108 8.4791 19.514 8.3386 12.708-0.13838 13.532-0.84594 16.885-14.502 3.9487-16.083 6.4166-21.28 13.826-29.115 8.9145-9.4258 15.759-11.859 33.358-11.856 7.3649 0.00093 18.063 0.82403 23.774 1.8291 11.48 2.0203 22.219 0.93122 24.786-2.5137 0.781-1.048 2.6487-6.8039 4.1502-12.791 1.5016-5.9869 4.2137-13.611 6.0268-16.943 4.7134-8.6599 15.22-17.848 23.076-20.181 8.3348-2.4752 30.729-2.4889 44.702-0.0274 8.8334 1.556 27.172 1.8716 108.75 1.8716s99.917-0.3156 108.75-1.8716c5.8438-1.0294 17.213-1.8724 25.266-1.8733 18.702-0.003 25.204 2.1846 34.319 11.543 7.8502 8.0594 10.577 13.365 14.559 28.331 1.6989 6.3838 3.5905 12.109 4.2038 12.722 3.9549 3.9549 53.402 5.1888 71.23 1.7774 5.6123-1.0739 16.739-1.8697 26.048-1.8628 14.427 0.0113 16.951 0.34106 22.5 2.9457 6.4839 3.0434 17.661 13.839 20.955 20.239 1.0411 2.0226 3.1389 7.8962 4.6616 13.052 1.5229 5.1562 3.2896 10.016 3.9263 10.799 0.6365 0.78299 3.7826 2.0847 6.9913 2.8926 10.39 2.6161 18.486 7.3237 25.821 15.014 3.9098 4.0989 7.9323 9.4239 8.939 11.833 2.2955 5.4938 2.5035 35.302 0.3503 50.194-1.1637 8.0481-1.1455 11.733 0.085 17.229 1.5596 6.9694 1.5847 6.9974 7.957 8.8898 3.5158 1.0441 6.8317 1.8984 7.3687 1.8984 0.5369 0 4.2318 1.2163 8.2106 2.7028 8.6914 3.2471 21.638 15.004 26.018 23.627 1.5937 3.1378 4.1981 10.663 5.7875 16.723 2.425 9.2458 3.3953 11.225 6.0342 12.305 12.72 5.2066 17.272 7.9161 23.988 14.279 12.141 11.503 12.734 13.525 13.679 46.614 0.4415 15.469 1.4369 30.154 2.2121 32.633 1.3324 4.262 1.9377 4.6636 11.088 7.3551 12.338 3.6294 20.309 7.644 26.775 13.486 6.9908 6.3157 10.529 12.284 15.194 25.631l3.9591 11.327 8.125 2.7227c4.4688 1.4975 10.375 3.8869 13.125 5.3098 6.1119 3.1624 17.504 14.628 19.305 19.429 0.7259 1.9353 1.3199 10.774 1.3199 19.641 0 18.605-1.3594 23.373-10.45 36.651-3.0572 4.4655-5.9239 9.7822-6.3704 11.815-0.8386 3.8186 2.1484 34.726 4.3524 45.035 0.6866 3.2113 2.1193 8.1965 3.1838 11.078 1.8163 4.9178 2.3337 5.3177 8.4222 6.512 3.5679 0.6997 9.2995 1.6497 12.737 2.111 15.314 2.055 30.739 12.366 37.231 24.888 3.5996 6.9429 4.39 28.791 1.7186 47.506-1.631 11.427-1.7008 14.999-0.4145 21.193l1.5472 7.4499 11.209 3.2743c14.689 4.2907 19.862 7.1218 27.708 15.164 10.194 10.45 11.571 14.661 11.574 35.412 0 9.83-0.7891 21.883-1.804 27.5-2.748 15.209-2.7821 574.54-0.036 591.25 2.5527 15.537 2.491 42.172-0.115 49.822-2.5332 7.4342-12.751 18.755-20.448 22.656-3.1954 1.6192-10.278 4.2112-15.74 5.76-5.4614 1.5487-10.58 3.3066-11.374 3.9062-4.4242 3.341-5.9125 55.949-2.1928 77.504 1.3766 7.9769 1.8469 16.73 1.5278 28.438-0.4184 15.348-0.7658 17.498-3.7519 23.214-6.3876 12.229-16.729 19.401-36.014 24.977-13.105 3.7888-12.936 3.3109-13.532 38.29-0.3715 21.817-0.021 31.225 1.5246 40.988 1.1038 6.9688 2.0069 19.377 2.0069 27.574 0 19.323-2.0849 25.354-12.168 35.197-8.6377 8.4322-12.479 10.523-27.195 14.805l-11.238 3.27-1.6956 7.4247c-1.3356 5.8483-1.4029 9.4156-0.3164 16.8 0.7586 5.1562 1.3634 17.812 1.3436 28.125-0.043 22.127-1.035 25.197-11.401 35.256-9.7976 9.5074-12.671 10.369-34.581 10.369-10.22 0-21.677-0.6216-25.46-1.3813-5.1205-1.0283-8.6846-1.0062-13.949 0.086l-7.0707 1.468-1.9773 7.1009c-6.1612 22.128-8.5268 26.788-18.235 35.927-6.9205 6.5149-14.598 10.267-27.933 13.652-4.125 1.047-8.1705 2.8089-8.99 3.9151-2.398 3.2373-3.2711 14.738-1.7725 23.344 0.7631 4.3821 1.382 16.359 1.3752 26.615-0.012 17.021-0.2708 19.193-2.9783 24.898-3.1445 6.6259-11.012 14.824-18.259 19.028-2.4063 1.3956-8.1293 3.7639-12.718 5.2628-4.5886 1.4988-8.8731 3.3966-9.5211 4.2172-0.648 0.8208-2.4556 5.4296-4.0169 10.242-4.1462 12.781-6.4756 16.703-14.584 24.555-11.425 11.065-13.128 11.658-33.535 11.671-11.663 0.013-21.871-0.7694-30.603-2.3306-10.858-1.9414-16.854-2.2223-35-1.6398-12.044 0.3866-24.284 1.3703-27.202 2.1859-5.7142 1.5974-5.3733 0.9744-9.1965 16.808-2.6665 11.044-6.811 18.484-14.416 25.882-4.0327 3.9227-9.4235 8.0009-11.98 9.0625-6.1959 2.5734-39.366 2.6094-50.978 0.055-12.321-2.7101-195.41-2.7104-209.58-0.0003-13.563 2.5954-45.103 2.561-51.4-0.056-6.9259-2.8783-17.53-13.852-21.636-22.39-1.9693-4.0953-4.4981-11.569-5.6192-16.609-1.1213-5.0397-2.821-9.9454-3.7771-10.902-2.5575-2.5575-13.902-3.5887-22.334-2.03-4.0508 0.7488-15.277 1.3491-24.948 1.334-21.28-0.033-24.205-1.0819-35.182-12.614-8.0269-8.4324-9.8184-12.113-14.335-29.448l-2.6613-10.214-6.4521-1.6607c-9.2055-2.3694-106.16-2.3808-115.35-0.014l-6.3956 1.6472-2.8102 10.853c-4.1134 15.886-6.8175 21.267-14.767 29.388-11.073 11.311-13.264 12.09-34.028 12.09-9.6919 0-21.545-0.648-26.34-1.4399-6.7124-1.1085-10.286-1.0892-15.528 0.084-7.5593 1.6917-6.4331-0.1875-11.255 18.781-1.1256 4.4275-3.0844 10.052-4.353 12.5-3.1669 6.1101-15.874 18.298-21.524 20.645-6.1958 2.5734-39.366 2.6094-50.978 0.055-12.321-2.7101-195.41-2.7103-209.58-0.0002-13.008 2.4892-45.655 2.4912-51.38 0zm209.08-108.19c4.809-0.695 9.4114-1.9495 10.228-2.7877 0.8161-0.8384 2.6473-6.1186 4.0692-11.734 3.9661-15.663 6.4507-20.248 15.868-29.283 11.542-11.075 13.606-11.648 37.808-10.505 33.186 1.5674 39.855 1.4676 41.904-0.6268 1.0088-1.0312 3.3119-7.1655 5.1179-13.632 1.806-6.4661 4.3316-13.779 5.6124-16.25 3.1853-6.1465 15.878-18.334 21.546-20.688 6.2486-2.5954 35.453-2.6283 48.9-0.055 14.509 2.7762 197.57 2.7761 213.33-0.0003 6.0102-1.0587 17.954-1.8603 27.5-1.8458 20.412 0.031 23.407 1.1253 34.609 12.644 8.2641 8.4973 10.947 13.871 14.71 29.463 1.1962 4.9558 3.0499 9.7371 4.1194 10.625 2.154 1.7881 10.109 1.8566 41.918 0.3608 23.266-1.094 27.636-0.019 37.526 9.2323 8.2183 7.6871 11.318 13.421 15.624 28.896 3.6193 13.008 3.6949 13.141 8.51 14.945 3.8562 1.4449 14.767 1.9153 52.889 2.2806 46.86 0.4492 65.903-0.5165 69.529-3.5255 0.8642-0.7173 2.55-5.359 3.7461-10.315 3.7632-15.592 6.4461-20.966 14.71-29.463 11.202-11.518 14.197-12.613 34.609-12.644 9.5458-0.015 21.49 0.7871 27.5 1.8458 19.699 3.4699 65.593 1.9817 69.508-2.254 0.7606-0.8227 2.3721-5.1522 3.5811-9.621 4.432-16.381 7.0351-21.581 14.926-29.818 7.8127-8.1547 14.016-12.001 25.326-15.703 7.8017-2.5535 8.2827-3.1025 10.993-12.551 3.3427-11.653 7.2656-18.191 15.848-26.413 8.1643-7.8216 14.423-10.969 28.302-14.233 3.635-0.8547 7.3914-2.3364 8.3475-3.2925 2.6473-2.6472 3.6256-14.46 2.0661-24.945-0.7686-5.1683-1.3921-17.108-1.3853-26.534 0.012-15.435 0.3068-17.757 2.9805-23.386 6.0121-12.659 18.899-21.743 37.363-26.34 5.8195-1.4486 8.9069-2.9075 9.839-4.6491 1.6022-2.9936 1.7055-13.373 0.4387-44.059-0.8924-21.616-0.8162-22.814 1.846-29.002 3.1935-7.4237 13.816-18.177 20.865-21.123 7.0683-2.9533 25.186-3.5003 42.044-1.2694 15.535 2.0559 26 1.2919 31.607-2.3071 4.0384-2.5923 5.7447-13.412 6.4274-40.752 0.4712-18.878 0.1487-27.424-1.4056-37.238-2.3158-14.621-2.6795-44.576-0.631-51.954 1.7527-6.3132 15.99-21.374 23.132-24.469 2.8288-1.226 9.7309-3.5442 15.338-5.1516 9.671-2.7722 10.263-3.1476 11.525-7.3044 2.1166-6.9733 2.9031-54.028 1.0867-65.007-0.8531-5.1562-1.8056-18.506-2.1167-29.667-0.7184-25.769 0.244-29.193 11.224-39.938 9.1206-8.9251 11.448-10.209 26.856-14.82 11.056-3.3084 11.624-3.6526 13.106-7.954 1.2055-3.4977 1.6426-56.948 1.9686-240.75 0.4231-238.52 0.1773-254.61-3.9407-257.93-0.7924-0.6392-5.8413-2.3597-11.22-3.8234-5.3785-1.4638-12.068-3.8289-14.865-5.256-7.5054-3.8289-16.694-12.985-20.306-20.233-2.9535-5.927-3.1748-7.6134-3.1748-24.2 0-10.348 0.8506-23.2 2.0271-30.628 1.5884-10.028 1.8813-18.224 1.3529-37.863-0.3709-13.785-1.3526-27.459-2.1817-30.386-1.4347-5.0656-1.8469-5.4161-8.5404-7.2622-16.008-4.415-21.659-7.155-29.263-14.189-4.5035-4.1658-8.7162-9.4945-10.456-13.226-2.6497-5.6827-2.9152-7.9815-2.9263-25.326-0.013-11.709 0.7642-23.777 1.9986-31.25 3.3077-20.025 0.4621-72.206-4.182-76.687-0.5246-0.5062-4.4699-1.6387-8.7673-2.5167-6.2087-1.2685-9.9445-1.2882-18.19-0.096-12.948 1.8721-38.595 1.9386-45.247 0.1172-6.957-1.9049-22.337-17.285-24.242-24.242-1.7809-6.5041-1.7672-32.635 0.025-47.26 1.0614-8.6616 1.0476-13.22-0.056-18.519l-1.4636-7.0297-10.257-2.8636c-19.561-5.4613-31.482-13.895-37.038-26.202-2.1663-4.7991-2.5432-8.251-2.5665-23.511-0.015-9.837 0.5902-21.867 1.3452-26.733 1.48-9.5392 0.6539-20.716-1.777-24.041-0.83-1.1352-5.438-3.0764-10.24-4.3137-12.807-3.3-19.758-6.7582-26.774-13.321-7.6979-7.2004-11.255-13.226-15.613-26.444l-3.375-10.238-6.4846-2.1236c-11.524-3.7738-20.092-8.8461-26.641-15.771-7.3649-7.788-9.325-11.217-12.362-21.629-6.1114-20.949-4.9356-19.052-12.87-20.763-10.525-2.27-52.272-1.7479-66.006 0.82552-15.766 2.9542-40.423 2.1385-47.356-1.5666-10.061-5.3775-21.244-19.446-23.644-29.746-0.4807-2.0625-1.969-7.4741-3.3072-12.026l-2.4331-8.2758-7.4053-1.4569c-10.178-2.0024-102.51-1.9995-112.69 0.004l-7.423 1.4604-1.9739 7.0223c-4.6636 16.591-5.3763 18.788-7.3931 22.8-2.9654 5.898-14.007 17.037-19.982 20.158-7.1282 3.7235-27.354 4.4717-44.297 1.6386-10.278-1.7186-13.912-1.8491-19.455-0.69835l-6.8161 1.415-2.4568 8.3548c-1.3512 4.5951-2.8506 10.042-3.3321 12.105-2.9419 12.602-16.564 27.733-28.036 31.14-8.5625 2.5428-28.38 2.5942-42.482 0.11037-15.441-2.7198-205.59-2.7362-220.62-0.019-13.645 2.4654-34.647 2.4209-43.107-0.0914-4.919-1.4608-8.6024-3.8138-13.941-8.9059-8.5017-8.1093-11.705-14.167-16.054-30.359l-3.1896-11.875-6.2293-1.6307c-5.3174-1.392-8.2792-1.3219-20.232 0.47901-18.385 2.77-37.601 2.0528-44.748-1.6702-6.361-3.3137-17.144-14.434-20.294-20.928-1.3338-2.75-3.7001-9.8432-5.2587-15.763-1.5585-5.9195-3.2258-11.397-3.7052-12.173-1.9319-3.1259-15.926-4.0101-63.639-4.0208-32.254-0.008-51.68 0.48725-56.516 1.4387-8.2061 1.6144-7.7303 0.92034-11.87 17.318-2.8238 11.184-6.0555 17.122-13.531 24.862-10.194 10.554-13.725 11.925-32.138 12.479-11.059 0.33306-18.942-0.13387-26.652-1.5787-13.794-2.5848-55.479-3.0956-66.082-0.80969-3.9531 0.85225-7.1875 1.7178-7.1875 1.9234 0 1.79-8.0838 26.952-9.6021 29.888-5.6333 10.893-19.368 21.214-35.079 26.36-6.433 2.107-6.5941 2.2806-8.5729 9.2365-3.5535 12.492-8.7705 21.902-15.859 28.606-8.1706 7.7274-13.828 10.711-26.653 14.055-5.4225 1.4139-10.5 3.4334-11.284 4.4878-2.3034 3.0992-3.1763 14.506-1.7723 23.159 0.7167 4.4174 1.2951 16.469 1.2851 26.782-0.015 16.142-0.3711 19.532-2.557 24.375-5.564 12.326-17.886 21.066-36.943 26.203l-10.162 2.7393-1.5824 7.4565c-1.2349 5.8191-1.2676 9.7095-0.1488 17.716 0.7885 5.6428 1.4206 18.135 1.4046 27.76-0.035 21.209-1.084 24.115-12.708 35.205-10.651 10.162-13.595 10.919-38.516 9.9071-10.656-0.4328-22.574-1.107-26.485-1.4982-4.7211-0.4723-9.3954-0.047-13.912 1.266-6.5065 1.8915-6.8619 2.2158-8.185 7.4706-3.9973 15.874-4.0459 57.487-0.1 85.15 1.9678 13.793 0.7998 35.195-2.2985 42.115-2.8825 6.4377-15.788 19.038-22.411 21.882-2.6035 1.1179-8.9524 3.2263-14.109 4.6855-10.739 3.039-11.576 4.0769-13.665 16.956-1.9942 12.292-1.6705 48.015 0.5397 59.565 1.1692 6.11 1.8703 17.09 1.8628 29.172-0.011 17.792-0.2545 19.886-2.9803 25.625-6.0121 12.659-18.899 21.743-37.363 26.34-4.8841 1.2159-8.9478 2.984-9.5822 4.1694-3.501 6.5416-3.8116 27.136-3.7874 251.14 0.023 212.43 0.3734 240.16 3.1488 249.09 0.3614 1.1618 3.6742 2.838 7.9695 4.0322 16.184 4.4995 21.792 7.3295 29.966 15.12 11.704 11.155 12.581 13.718 12.614 36.83 0.017 12.133-0.7205 23.608-2.0011 31.121-2.5128 14.741-1.9017 59.002 0.9265 67.11 1.7042 4.8853 1.8957 5.0033 14.471 8.9183 14.85 4.6232 19.408 7.1896 26.574 14.964 8.9298 9.6877 9.9981 13.419 10.03 35.026 0.015 10.522-0.7982 24.337-1.8402 31.25-3.0929 20.521-1.9979 60.406 1.9963 72.713 1.5798 4.8679 3.2921 5.9031 12.614 7.6264 5.4683 1.0109 10.507 0.8634 21.869-0.6403 17.087-2.2612 34.984-1.6757 42.343 1.3853 6.7612 2.8125 16.479 12.532 20.053 20.056 2.6814 5.6459 2.9695 7.9355 2.9805 23.685 0.01 9.5894-0.6311 21.964-1.4174 27.5-1.0953 7.7113-1.0768 11.735 0.079 17.208l1.509 7.1429 14.296 4.4628c13.447 4.198 14.79 4.9241 22.614 12.232 11.979 11.189 12.87 13.736 12.903 36.905 0.015 10.525-0.5716 22.997-1.3038 27.716-1.459 9.404 0.085 22.231 2.8848 23.961 0.8524 0.5268 4.3671 1.6195 7.8106 2.4284 13.512 3.1737 19.844 6.3791 27.949 14.149 8.9835 8.6119 10.382 10.893 15.745 25.693l3.8355 10.583 8.7406 3.2545c12.68 4.7215 15.452 6.4521 23.301 14.547 8.2589 8.5183 11.277 14.082 14.83 27.34 3.3028 12.325 4.1447 13.82 8.3842 14.886 1.9115 0.4807 15.007 1.1669 29.1 1.525 20.384 0.518 27.762 0.2428 36.076-1.3457 6.4205-1.2269 17.025-1.9923 27.5-1.9848 20.742 0.015 25.939 1.8782 36.027 12.916 6.7863 7.4253 9.629 13.535 13.671 29.38 2.5976 10.184 3.3572 10.906 13.203 12.543 9.3147 1.5495 96.03 1.6188 106.64 0.085zm-51.555-2102.2c7.0873-3.4902 11.806-8.9319 18.02-20.78 5.2576-10.025 16.296-22.287 23.267-25.847 8.9023-4.5458 14.557-4.7751 82.319-3.3377 61.44 1.3034 66.236 1.2514 72.461-0.7849 10.537-3.4464 18.922-9.7069 23.099-17.247l3.6449-6.5786v-23.125c0-21.688-0.1809-23.492-2.9109-29.035-3.3832-6.8694-9.5966-12.176-19.642-16.775l-7.143-3.2702-72.652 0.4777-72.652 0.4777-6.5926-3.6526c-8.8433-4.8994-15.991-12.864-23.349-26.015-6.8802-12.298-11.1-17.136-17.888-20.511-4.4892-2.2318-13.213-2.3362-224.67-2.6897-149.12-0.2493-221.45 0.05-224.49 0.9272-8.4898 2.451-14.19 7.9121-21.163 20.275-8.4072 14.906-19.365 26.414-28.351 29.776-6.2944 2.355-9.0922 2.4144-77.763 1.6504l-71.234-0.7925-7.8762 3.8782c-9.0896 4.4757-14.775 9.5994-18.012 16.232-2.7363 5.6075-3.9452 22.745-2.8865 40.921 1.0847 18.623 5.6174 25.699 21.147 33.012 6.6988 3.1547 7.5316 3.2377 32.5 3.2377 14.094 0 46.719-0.2813 72.5-0.625l46.875-0.625 7.1126 3.4928c9.0818 4.4598 18.03 14.208 24.933 27.164 7.5144 14.103 13.858 20.015 24.205 22.558 2.0625 0.50688 102.19 0.83466 222.5 0.72838l218.75-0.19325 5.939-2.9247z"/>
<path id="path3341" d="m-780.43-138.38c-26.889 0.59331-54.022-1.1695-80.732 2.3027-12.155 3.8912-14.844 18.089-18.567 28.507-4.6854 14.342-18.233 26.263-33.855 25.468-16.559 0.0219-32.929-3.3937-49.525-2.9964-16.549-0.34284-33.588-2.1192-49.809 1.7776-10.855 4.3457-12.823 16.991-15.816 26.805-6.054 15.605-20.331 26.357-35.764 31.664-13.615 7.2983-13.275 25.191-23.09 35.693-8.3578 10.289-21.808 12.865-33.211 18.125-7.4075 3.8306-11.918 11.985-11.084 20.307-1.2511 19.782 2.4792 39.491-0.3283 59.076-7.2119 13.81-22.456 20.255-36.828 23.666-11.234 4.7717-14.101 18.233-13.258 29.236-0.069 17.22 5.54 34.875-0.5859 51.611-6.9693 13.943-23.1 21.904-38.401 19.411-17.601-1.2066-37.316-6.1288-53.437 3.6556-8.8698 6.9698-5.9722 19.517-7.2372 29.278-1.1749 35.448 0.1172 71.128-1.2355 106.41-6.7187 10.971-18.309 17.923-30.674 20.668-9.0449 2.6843-17.129 9.8909-18.06 19.716-3.9722 19.74-1.1162 39.988-0.9043 59.928 0.7931 17.675 4.4732 35.199 1.0157 52.664-6.1355 14.851-21.912 22.334-36.33 26.93-8.9937 3.0914-16.024 11.936-14.514 21.796-1.8387 64.078-1.0005 128.2-1.4164 192.3-0.1 96.832-0.2978 193.72 1.4028 290.51 0.8255 9.2878 8.1647 16.776 17.219 18.543 14.786 4.434 31.213 13.341 34.48 29.812 1.4718 18.954-1.3887 38.027-1.9846 57.007-0.6461 17.299-1.9893 34.842 0.5061 52.034 1.8882 9.4866 9.7104 16.518 18.795 19.117 10.614 4.6542 23 8.5925 29.387 19.049 3.6539 40.036 0.341 80.773 2.7519 121.14 0.6332 8.3666 4.3023 17.539 13.039 20.207 12.823 3.7643 26.499 1.4664 39.67 1.9565 9.96-0.145 19.919-0.3424 29.879-0.4858 9.248 7.8571 19.918 17.674 18.825 30.985 0.7974 19.024-5.7761 38.742 0.2572 57.45 6.1736 11.67 21.2 11.598 31.15 18.445 7.1401 4.4118 14.607 10.243 17.225 18.432 1.7618 22.052-3.046 44.555 1.3183 66.449 5.6754 12.521 21.173 12.809 31.551 19.086 12.538 7.2107 19.255 20.71 23.482 33.959 8.1171 15.992 30.688 14.495 39.522 29.905 6.2119 8.8376 8.3941 19.502 12.492 29.284 3.5532 8.3197 12.637 11.694 21.125 11.779 19.138 1.1228 38.372 0.094 57.496-0.9687 14.232-0.4069 29.006-4.1737 42.965-0.092 15.2 4.9764 21.652 20.861 25.73 34.94 2.8335 8.9765 9.3573 17.513 19.295 18.742 17.308 1.0269 34.81 1.0741 52.203 1.4077 22.516-0.2203 45.288 0.5791 67.545-3.058 7.7496-1.6787 7.3289-11.139 9.936-17.164 3.1664-11.938 8.7817-23.762 19.175-30.99 13.689-9.8262 31.415-5.2262 46.668-3.4957 11.327 2.0474 25.743 0.3416 31.418-11.166 5.8765-10.858 6.6809-24.139 15.617-33.381 5.6341-8.5071 16.4-5.7951 24.896-6.5979 73.859-1.8541 147.91-0.4082 221.85-0.9357 23.958 0.1811 47.845 0.02 71.664 1.6937 9.4248 3.9761 14.04 14.408 17.766 23.295 2.8 10.597 7.1689 23.845 19.371 26.486 19.872 4.918 40.754-7.852 60.062 1.3574 10.786 5.524 18.698 15.788 21.576 27.558 2.3532 8.7048 4.7923 19.246 14.184 22.965 9.9842 3.9755 21.161 1.6476 31.628 2.7745 29.441 0.5443 59.003 0.8484 88.364-1.2941 10.145-2.0284 15.87-11.927 17.807-21.342 4.8303-14.276 13.5-31.394 30.307-33.144 17.355-1.9048 34.62 2.5165 52.012 2.0786 17.46 0.5083 35.31 2.2689 52.541-1.1001 12.422-4.7613 14.93-19.472 18.998-30.414 4.8352-14.001 18.412-21.974 31.537-26.883 8.9912-4.3309 14.54-13.285 16.84-22.725 6.3053-16.152 21.762-26.85 38.18-30.875 8.6471-3.2245 15.961-11.466 14.869-21.17 1.5423-20.186-2.5949-40.41 0.666-60.211 6.1927-14.314 22.585-18.898 36.07-23.539 9.4074-4.0136 14.385-14.43 13.2-24.363 0.5141-19.087-4.604-38.942 1.8346-57.44 3.6514-6.867 10.14-11.454 15.547-16.824 22.52-0.2521 45.582 2.7564 68.08-0.623 10.637-3.0874 15.32-14.944 14.518-25.192 2.2154-38.872-1.1515-78.193 2.685-116.71 6.7323-12.076 21.044-16.485 33.242-20.961 8.6088-3.0236 14.395-11.067 15.119-20.068 2.3245-15.898 0.495-32.041 0.5137-48.035-0.5744-19.693-3.9415-39.474-2.2031-59.141 4.2645-16.382 20.85-25.431 35.98-29.545 7.6925-2.693 15.778-8.7634 14.82-17.805 1.1998-34.442 0.6232-68.746 1.0259-103.29 0.4578-128.71 0.7422-257.47-0.7837-386.14-0.5562-10.565-11.813-14.361-20.1-17.613-15.104-4.7344-31.356-16.434-31.533-33.773 0.306-27.555 3.8158-55.388 3.3309-82.953-0.043-11.029 0.5007-23.898-7.1844-32.715-9.3312-8.9456-23.789-8.4138-33.453-17.008-8.5859-6.0358-13.475-16.668-12.346-26.926-1.0472-33.951 4.5429-68.063 1.4472-102.1-1.5574-11.579-10.462-22.608-22.688-23.295-19.554-3.2648-39.685 5.9597-58.836-0.4551-11.644-5.8275-21.445-17.484-20.379-31.146-1.1613-18.506 3.9328-37.511-0.4805-55.963-4.0606-10.66-16.428-12.417-25.877-15.545-9.8675-4.2251-20.6-11.677-22.522-22.874-1.7156-21.889 3.6658-44.344-1.2559-66.055-5.4853-12.012-20.542-12.327-30.705-18.225-12.774-7.0298-20.011-20.322-24.578-33.621-3.86-8.2896-12.074-13.148-20.422-15.85-13.92-6.946-25.994-19.423-28.143-35.334-2.4531-10.262-10.366-20.943-21.923-20.524-31.651-2.2794-63.281 1.7533-94.852 2.8929-17.154-1.7121-29.389-17.361-32.846-33.348-2.5078-8.8777-6.8948-19.124-17.115-20.943-14.421-2.2012-29.173-1.083-43.726-1.7461-24.929-0.0654-50.054-0.84547-74.836 1.959-12.275 3.5368-14.682 17.692-18.33 28.037-3.9501 9.3104-9.3737 20.687-20.096 23.065-21.797 2.8621-44.152-1.9936-65.674 2.6783-10.958 6.7075-10.521 21.281-16.284 31.514-4.0314 8.1588-10.246 17.968-20.584 17.154-26.998 1.9526-54.714 0.79281-82.164 1.2436-73.09-0.14695-146.23 1.069-219.28-1.3218-10.128-0.40979-15.317-10.865-19.256-18.859-5.1166-9.7321-4.3718-23.617-15.119-29.527-8.745-3.251-18.528-2.0189-27.715-2.3414-13.838-0.0365-28.136 1.833-41.678-1.4848-14.436-7.5192-16.931-25.245-22.574-38.869-5.7006-10.59-18.669-13.212-29.698-13.029-7.2547-0.39469-14.523-0.40352-21.786-0.38121z" fill="#f00"/>
<path id="path3342" d="m-1146.2-549.91c-35.518 0.5248-71.412-1.1622-106.59 4.3847-11.071 2.2613-21.268 9.6225-25.145 20.502-6.5882 12.672-17.254 26.569-32.986 26.332-30.174 2.289-60.48 0.5223-90.708 1.1625h-56.883c-9.5853 10.433-23.873 20.008-24.293 35.684-0.4353 17.908-2.5485 36.746 3.677 53.927 6.1971 13.315 21.436 18.796 35.188 19.68 33.688 3.8558 67.679 1.5102 101.5 2.25h41.656c14.938 10.595 22.82 27.65 33.881 41.535 4.9525 6.6257 13.348 8.9669 21.31 8.1848 82.518 3.155 165.12 2.2317 247.69 2.5479 65.053-0.14032 130.15-0.038 195.15-2.6741 10.164-0.3319 16.59-8.9707 22.211-16.314 7.062-8.8632 11.315-20.457 20.625-27.223 13.115-6.0077 27.787-3.9395 41.784-5.1612 41.667-1.0972 83.322-1.6827 124.99-2.6142 10.779-10.138 23.482-21.469 23.901-37.479 2.6795-20.311 2.834-44.065-12.14-59.949-13.435-13.116-33.742-11.28-50.962-12.128-39.352-1.189-78.846 1.697-117.87-2.8604-10.282-1.3975-17.491-9.3499-21.709-18.283-5.9074-9.914-11.618-21.44-22.072-27.166-18.746-3.9219-37.99-2.1679-56.988-3.2277-98.398-1.5115-196.81-1.0821-295.22-1.1102z" fill="#008000"/>
<path id="path4150" d="m-67.866 89.278c-39.286-5.7339-55.245-13.54-77.082 0-11.859 7.3535 8.8529 30.212 24.006 34.471 12.035 3.43 26.976 6.9067 32.084 19.922 9.4991 20.988 11.67 44.535 11.527 67.166 0.7971 13.339 15.86 17.858 26.449 20.568 7.7814 1.417 16.36 3.7715 20.256 11.4 8.3754 16.268 4.3228 35.654 3.3418 52.832-0.007 8.2107-1.4279 16.833 1.0684 24.744 3.7582 7.489 11.921 12.713 20.461 11.297 21.678 0.8087 45.112-7.1767 65.461 3.625 12.855 7.808 13.782 24.564 14.921 37.965 2.8367 27.029 0.57054 54.238-2.038 81.112-0.0611 8.3715-1.4021 17.761 2.513 25.438 7.6848 11.309 22.137 12.914 33.922 17.223 10.845 5.4624 15.776 18.019 15.453 29.631 3.4705 35.578-15.871 69.206-11.471 104.74 1.462 7.8847 8.9257 14.05 17.701 13.517 32.969-2.002 70.699 16.762 99.084-0.12414 16.926-10.069 5.0084-39.636 1.2656-59.168-5.7668-12.51-20.759-15.16-32.506-18.936-5.1524-1.4783-5.3038-7.03-5.3747-11.36-5.7623-17.912-2.7574-36.85-0.90401-55.089 0.88356-10.215 0.87834-23.825-9.8929-29.241-10.594-6.9292-23.88-5.424-35.314-9.6289-10.392-4.4593-16.274-15.216-17.75-26.012-4.6299-19.329-6.8173-39.518-5.2441-59.318 2.746-13.713 17.588-23.005 15.779-37.844 0.17033-8.4918 2.3789-19.535-6.7852-24.402-8.0258-6.4681-19.124-6.6403-27.402-12.379-10.439-8.3989-8.2499-23.712-16.592-33.559-5.3702-8.8055-15.606-11.253-24.834-13.785-10.815-3.1367-21.187-11.177-22.76-22.961-2.5162-13.631-2.2028-27.616-2.7491-41.42-0.14733-9.1966 0.96246-22.154-8.9247-27.156-10.821-6.4932-24.536-7.3043-34.441-15.262-11.616-11.388-7.6027-31.256-21.021-41.332-7.9773-7.4494-18.853-7.8857-28.547-11.611-4.1519-2.4888-7.3074-5.1285-13.146-5.0717 0 0-0.39338-0.11673-0.51393 0.005-0.000066 0.000066 0 0.00028 0 0.00028z" fill="#faa"/>
<rect id="rect4744" ry="29.098" height="180" width="87.143" y="745.22" x="155.71" fill="#faa"/>
</g>
</g>
</svg>
