<?xml version="1.0" encoding="UTF-8" standalone="no"?>
<svg
   xmlns:dc="http://purl.org/dc/elements/1.1/"
   xmlns:cc="http://creativecommons.org/ns#"
   xmlns:rdf="http://www.w3.org/1999/02/22-rdf-syntax-ns#"
   xmlns:svg="http://www.w3.org/2000/svg"
   xmlns="http://www.w3.org/2000/svg"
   id="svg4117"
   version="1.1"
   viewBox="0 0 19.049998 13.229167"
   height="50"
   width="71.999992">
  <title
     id="title4678">Beagle Bros Clip Art - Bow</title>
  <defs
     id="defs4111" />
  <metadata
     id="metadata4114">
    <rdf:RDF>
      <cc:Work
         rdf:about="">
        <dc:format>image/svg+xml</dc:format>
        <dc:type
           rdf:resource="http://purl.org/dc/dcmitype/StillImage" />
        <dc:title>Beagle Bros Clip Art - Bow</dc:title>
        <cc:license
           rdf:resource="http://creativecommons.org/publicdomain/zero/1.0/" />
        <dc:creator>
          <cc:Agent>
            <dc:title>Beagle Bros</dc:title>
          </cc:Agent>
        </dc:creator>
        <dc:publisher>
          <cc:Agent>
            <dc:title>Openclipart.org</dc:title>
          </cc:Agent>
        </dc:publisher>
        <dc:identifier>https://openclipart.org/</dc:identifier>
        <dc:subject>
          <rdf:Bag>
            <rdf:li>Beagle Bros</rdf:li>
            <rdf:li>retro</rdf:li>
            <rdf:li>8-bit</rdf:li>
            <rdf:li>8bit</rdf:li>
            <rdf:li>8 bit</rdf:li>
            <rdf:li>old school</rdf:li>
            <rdf:li>OldSchool</rdf:li>
            <rdf:li>old skool</rdf:li>
            <rdf:li>OldSkool</rdf:li>
            <rdf:li>low res</rdf:li>
            <rdf:li>LowRes</rdf:li>
            <rdf:li>Apple IIGS</rdf:li>
            <rdf:li>pixel art</rdf:li>
            <rdf:li>PixelArt</rdf:li>
            <rdf:li>bow</rdf:li>
            <rdf:li>gift</rdf:li>
            <rdf:li>decoration</rdf:li>
            <rdf:li>ribbon</rdf:li>
          </rdf:Bag>
        </dc:subject>
        <dc:description>Retro 8-bit bitmap style graphic from the  Beagle Bros Clip Art for the Apple IIGS.</dc:description>
        <dc:contributor>
          <cc:Agent>
            <dc:title>conversion to SVG... Arvin61r58 (https://openclipart.org/user-detail/Arvin61r58)</dc:title>
          </cc:Agent>
        </dc:contributor>
      </cc:Work>
      <cc:License
         rdf:about="http://creativecommons.org/publicdomain/zero/1.0/">
        <cc:permits
           rdf:resource="http://creativecommons.org/ns#Reproduction" />
        <cc:permits
           rdf:resource="http://creativecommons.org/ns#Distribution" />
        <cc:permits
           rdf:resource="http://creativecommons.org/ns#DerivativeWorks" />
      </cc:License>
    </rdf:RDF>
  </metadata>
  <g
     transform="translate(-95.475001,-141.88542)"
     id="layer1">
    <g
       transform="matrix(0.49999993,0,0,0.49999993,65.42683,34.418708)"
       id="g1574"
       style="shape-rendering:crispEdges">
      <title
         id="title4676">Beagle Bros - Bow</title>
      <path
         id="path1582"
         d="m 69.092184,234.51261 v -2.11666 h -2.116667 -2.116666 v -0.52917 -0.52917 h 0.529166 0.529167 v -0.52916 -0.52917 h 0.529167 0.529166 v -0.52917 -0.52916 h 0.529167 0.529167 v 0.52916 0.52917 h 0.529166 0.529167 v -1.05833 -1.05834 h -1.5875 -1.5875 v -0.52916 -0.52917 h -0.529167 -0.529166 v -4.23333 -4.23334 h 3.175 3.175 v 0.52917 0.52917 h 1.5875 1.5875 v 0.52916 0.52917 h 0.529167 0.529166 v 1.05833 1.05834 h 0.529167 0.529167 v 0.52916 0.52917 h -1.058334 -1.058333 v 0.52917 0.52916 h 0.529167 0.529166 v 0.52917 0.52917 h 0.529167 0.529167 v -0.52917 -0.52917 h 0.529166 0.529167 v 0.52917 0.52917 h -0.529167 -0.529166 v 0.52916 0.52917 h -0.529167 -0.529167 v 0.52917 0.52916 h 0.529167 0.529167 v 0.52917 0.52917 h -0.529167 -0.529167 v 0.52916 0.52917 h -0.529166 -0.529167 v 0.52917 0.52916 h -0.529167 -0.529166 v 0.52917 0.52917 h -0.529167 -0.529167 v 0.52916 0.52917 h -0.529166 -0.529167 v 1.05833 1.05834 h -0.529167 -0.529167 v 0.52916 0.52917 h -0.529166 -0.529167 z m 2.116667,-5.82083 v -0.52917 h 0.529167 0.529166 v -0.52916 -0.52917 h 0.529167 0.529167 v 0.52917 0.52916 h 0.529166 0.529167 v 0.52917 0.52917 h 0.529167 0.529166 v -0.52917 -0.52917 h -0.529166 -0.529167 v -0.52916 -0.52917 h 0.529167 0.529166 v -0.52917 -0.52916 h -0.529166 -0.529167 v -0.52917 -0.52917 h -0.529167 -0.529166 v 0.52917 0.52917 h -1.058334 -1.058333 v 0.52916 0.52917 h -1.058334 -1.058333 v 0.52917 0.52916 h 0.529167 0.529166 v 0.52917 0.52917 h 0.529167 0.529167 z m 2.116667,-2.11667 v -0.52916 h 0.529166 0.529167 v 0.52916 0.52917 h -0.529167 -0.529166 z m 0,-3.70416 v -1.05834 h -1.5875 -1.587501 v -0.52916 -0.52917 h -0.529166 -0.529167 v -0.52917 -0.52916 h -0.529167 -0.529166 v 1.5875 1.5875 h 0.529166 0.529167 v 0.52916 0.52917 h 2.116667 2.116667 z m 14.816667,13.22916 v -0.52916 h -0.529167 -0.529167 v -1.05834 -1.05833 h -0.529167 -0.529166 v -0.52917 -0.52916 h -0.529167 -0.529167 v -0.52917 -0.52917 h -0.529166 -0.529167 v -0.52916 -0.52917 h -0.529167 -0.529166 v -1.05833 -1.05834 h -0.529167 -0.529167 v -0.52916 -0.52917 h -0.529166 -0.529167 v -0.52917 -0.52916 h 0.529167 0.529166 v -0.52917 -0.52917 h 0.529167 0.529167 v 0.52917 0.52917 h 0.529166 0.529167 v 0.52916 0.52917 h 0.529167 0.529166 v 0.52917 0.52916 h 0.529167 0.529167 v -0.52916 -0.52917 h 0.529166 0.529167 v -0.52917 -0.52916 h -1.058333 -1.058334 v -0.52917 -0.52917 h -0.529166 -0.529167 v -0.52916 -0.52917 h -1.058333 -1.058334 v -0.52917 -0.52916 h 0.529167 0.529167 v -1.05834 -1.05833 h 0.529166 0.529167 v -0.52917 -0.52916 h 1.5875 1.5875 v -0.52917 -0.52917 h 3.175 3.175 v 4.23334 4.23333 h -0.529166 -0.529167 v 0.52917 0.52916 h -1.5875 -1.5875 v -0.52916 -0.52917 h -1.058333 -1.058334 v 0.52917 0.52916 h 0.529167 0.529167 v 0.52917 0.52917 h 1.058333 1.058333 v 0.52916 0.52917 h 1.058334 1.058333 v 0.52917 0.52916 h 0.529167 0.529166 v 0.52917 0.52917 h -2.116666 -2.116667 v 2.11666 2.11667 h -0.529167 -0.529166 z m -1.058334,-7.40833 v -0.52917 h -0.529167 -0.529166 v 0.52917 0.52917 h 0.529166 0.529167 z m -3.175,-1.05833 v -0.52917 h -0.529167 -0.529166 v -0.52917 -0.52916 h -0.529167 -0.529167 v 0.52916 0.52917 h 0.529167 0.529167 v 0.52917 0.52916 h 0.529166 0.529167 z m 5.291667,-4.23334 v -0.52916 h 0.529167 0.529166 v -1.5875 -1.5875 h -0.529166 -0.529167 v 0.52916 0.52917 h -0.529167 -0.529166 v 0.52917 0.52916 h -1.587501 -1.5875 v 1.05834 1.05833 h 2.116667 2.116667 z"
         style="fill:#ed8798;stroke-width:0.26458332" />
      <path
         id="path1580"
         d="m 77.558851,228.69178 v -0.52917 h 0.529167 0.529166 v 0.52917 0.52917 h -0.529166 -0.529167 z m 2.116667,0 v -0.52917 h 0.529166 0.529167 v 0.52917 0.52917 h -0.529167 -0.529166 z m -3.175,-8.46667 v -0.52916 h 0.529166 0.529167 v 0.52916 0.52917 h -0.529167 -0.529166 z m 4.233333,0 v -0.52916 h 0.529167 0.529166 v 0.52916 0.52917 h -0.529166 -0.529167 z m -6.35,-1.05833 v -0.52917 h 0.529167 0.529166 v 0.52917 0.52917 h -0.529166 -0.529167 z m 8.466667,0 v -0.52917 h 0.529166 0.529167 v 0.52917 0.52917 h -0.529167 -0.529166 z m -11.641667,-1.05833 v -0.52917 h 0.529167 0.529166 v 0.52917 0.52916 h -0.529166 -0.529167 z m 14.816667,0 v -0.52917 h 0.529166 0.529167 v 0.52917 0.52916 h -0.529167 -0.529166 z"
         style="fill:#878787;stroke-width:0.26458332" />
      <path
         id="path1578"
         d="m 68.033851,229.75011 v -0.52916 h 0.529166 0.529167 v 0.52916 0.52917 h -0.529167 -0.529166 z m 22.225,0 v -0.52916 h 0.529167 0.529167 v 0.52916 0.52917 h -0.529167 -0.529167 z m -20.108334,-1.05833 v -0.52917 h 0.529167 0.529167 v -0.52916 -0.52917 h 0.529167 0.529166 v 0.52917 0.52916 h -0.529166 -0.529167 v 0.52917 0.52917 h -0.529167 -0.529167 z m 4.233334,0 v -0.52917 h -0.529167 -0.529166 v -0.52916 -0.52917 h 0.529166 0.529167 v -0.52917 -0.52916 h 0.529167 0.529166 v -0.52917 -0.52917 h 0.529167 0.529167 v 0.52917 0.52917 h 0.529166 0.529167 v 0.52916 0.52917 h -0.529167 -0.529166 v 0.52917 0.52916 h -0.529167 -0.529167 v 0.52917 0.52917 h -0.529166 -0.529167 z m 1.058333,-1.05833 v -0.52917 h 0.529167 0.529167 v -0.52917 -0.52916 h -0.529167 -0.529167 v 0.52916 0.52917 h -0.529166 -0.529167 v 0.52917 0.52916 h 0.529167 0.529166 z m 6.35,1.05833 v -0.52917 h 0.529167 0.529167 v -0.52916 -0.52917 h -0.529167 -0.529167 v -0.52917 -0.52916 h -0.529166 -0.529167 v -0.52917 -0.52917 h 0.529167 0.529166 v 0.52917 0.52917 h 0.529167 0.529167 v -0.52917 -0.52917 h 0.529166 0.529167 v 0.52917 0.52917 h 0.529167 0.529166 v 0.52916 0.52917 h 0.529167 0.529167 v 0.52917 0.52916 h 0.529166 0.529167 v 0.52917 0.52917 h -0.529167 -0.529166 v -0.52917 -0.52917 h -0.529167 -0.529167 v -0.52916 -0.52917 h -0.529166 -0.529167 v 0.52917 0.52916 h -0.529167 -0.529166 v 0.52917 0.52917 h -0.529167 -0.529167 z m 2.116667,-2.11667 v -0.52916 h -0.529167 -0.529166 v 0.52916 0.52917 h 0.529166 0.529167 z m 4.233334,2.11667 v -0.52917 h 0.529166 0.529167 v 0.52917 0.52917 h -0.529167 -0.529166 z m -9.525001,-4.23333 v -0.52917 h -0.529166 -0.529167 v -0.52917 -0.52916 h -0.529167 -0.529166 v -0.52917 -0.52917 h 0.529166 0.529167 v -0.52916 -0.52917 h 0.529167 0.529166 v -0.52917 -0.52916 h 0.529167 0.529167 v 0.52916 0.52917 h 0.529166 0.529167 v 0.52917 0.52916 h 0.529167 0.529166 v 0.52917 0.52917 h -0.529166 -0.529167 v 0.52916 0.52917 h -0.529167 -0.529166 v 0.52917 0.52916 h -0.529167 -0.529167 z m -9.525,-1.05834 v -0.52916 h -0.529167 -0.529166 v -0.52917 -0.52917 h 0.529166 0.529167 v 0.52917 0.52917 h 2.116667 2.116667 v 0.52916 0.52917 h -2.116667 -2.116667 z m 15.875,0 v -0.52916 h 2.116667 2.116667 v -0.52917 -0.52917 h 0.529167 0.529166 v 0.52917 0.52917 h -0.529166 -0.529167 v 0.52916 0.52917 h -2.116667 -2.116667 z"
         style="fill:#981010;stroke-width:0.26458332" />
      <path
         id="path1576"
         d="m 68.033851,236.10011 v -2.64583 h -2.645834 -2.645833 v -0.52917 -0.52916 h 0.529167 0.529166 v -0.52917 -0.52917 h 0.529167 0.529167 v -0.52916 -0.52917 h 0.529166 0.529167 v -0.52917 -0.52916 h -0.529167 -0.529166 v -1.05834 -1.05833 h -0.529167 -0.529167 v -4.23333 -4.23334 h 0.529167 0.529167 v -0.52916 -0.52917 h 3.175 3.175 v 0.52917 0.52916 h 1.5875 1.5875 v 0.52917 0.52917 h 1.058333 1.058334 v 0.52916 0.52917 h 0.529166 0.529167 v -0.52917 -0.52916 h 0.529167 0.529166 v 0.52916 0.52917 h -0.529166 -0.529167 v 0.52917 0.52916 h -0.529167 -0.529166 v 0.52917 0.52917 h 0.529166 0.529167 v 0.52916 0.52917 h 0.529167 0.529166 v 0.52917 0.52916 h 0.529167 0.529167 v -0.52916 -0.52917 h 0.529166 0.529167 v -0.52917 -0.52916 h 0.529167 0.529166 v -0.52917 -0.52917 h -0.529166 -0.529167 v -0.52916 -0.52917 h -0.529167 -0.529166 v -0.52917 -0.52916 h 0.529166 0.529167 v 0.52916 0.52917 h 0.529167 0.529166 v -0.52917 -0.52916 h 1.058334 1.058333 v -0.52917 -0.52917 h 1.5875 1.5875 v -0.52916 -0.52917 h 3.175 3.175 v 0.52917 0.52916 h 0.529167 0.529167 v 4.23334 4.23333 h -0.529167 -0.529167 v 1.05833 1.05834 h -0.529166 -0.529167 v 0.52916 0.52917 h 0.529167 0.529166 v 0.52917 0.52916 h 0.529167 0.529167 v 0.52917 0.52917 h 0.529166 0.529167 v 0.52916 0.52917 h -2.645833 -2.645834 v 2.64583 2.64584 h -0.529166 -0.529167 v -0.52917 -0.52917 h -0.529167 -0.529166 v -0.52916 -0.52917 h -0.529167 -0.529167 v -0.52917 -0.52916 h -0.529167 -0.529166 v -0.52917 -0.52917 h -0.529167 -0.529167 v -0.52916 -0.52917 h -0.529166 -0.529167 v -0.52917 -0.52916 h -0.529167 -0.529166 v -0.52917 -0.52917 h -0.529167 -0.529167 v -0.52916 -0.52917 h -0.529166 -0.529167 v -1.05833 -1.05834 h -0.529167 -0.529166 v -0.52916 -0.52917 h -0.529167 -0.529167 v 0.52917 0.52916 h -0.529166 -0.529167 v 1.05834 1.05833 h -0.529167 -0.529166 v 0.52917 0.52916 h -0.529167 -0.529167 v 0.52917 0.52917 h -0.529166 -0.529167 v 0.52916 0.52917 h -0.529167 -0.529166 v 0.52917 0.52916 h -0.529167 -0.529167 v 0.52917 0.52917 h -0.529166 -0.529167 v 0.52916 0.52917 h -0.529167 -0.529167 v 0.52917 0.52916 h -0.529166 -0.529167 v 0.52917 0.52917 h -0.529167 -0.529166 z m 2.116666,0 v -0.52916 h 0.529167 0.529167 v -1.05834 -1.05833 h 0.529167 0.529166 v -0.52917 -0.52916 h 0.529167 0.529167 v -0.52917 -0.52917 h 0.529166 0.529167 v -0.52916 -0.52917 h 0.529167 0.529166 v -0.52917 -0.52916 h 0.529167 0.529167 v -1.05834 -1.05833 h 0.529166 0.529167 v -1.05833 -1.05834 h -1.5875 -1.5875 v -0.52916 -0.52917 h 1.058333 1.058334 v -0.52917 -0.52916 h -0.529167 -0.529167 v -1.05834 -1.05833 h -0.529166 -0.529167 v -0.52917 -0.52916 h -1.5875 -1.5875 v -0.52917 -0.52917 h -3.175 -3.175 v 4.23334 4.23333 h 0.529166 0.529167 v 0.52917 0.52916 h 1.5875 1.5875 v 0.52917 0.52917 h -1.058333 -1.058334 v 0.52916 0.52917 h -0.529166 -0.529167 v 0.52917 0.52916 h -0.529167 -0.529166 v 0.52917 0.52917 h 2.116666 2.116667 v 2.11666 2.11667 h 0.529167 0.529166 z m -1.058333,-8.46666 v -0.52917 h 1.058333 1.058334 v -0.52917 -0.52916 h 1.058333 1.058334 v -0.52917 -0.52917 h 0.529166 0.529167 v 0.52917 0.52917 h -0.529167 -0.529166 v 0.52916 0.52917 h -1.058334 -1.058333 v 0.52917 0.52916 h -1.058334 -1.058333 z m 0,-5.29167 v -0.52917 h -0.529167 -0.529166 v -1.05833 -1.05833 h 0.529166 0.529167 v 0.52916 0.52917 h 0.529167 0.529166 v 0.52917 0.52916 h 1.587501 1.5875 v 0.52917 0.52917 h -2.116667 -2.116667 z m 20.108334,12.17083 v -2.11666 h 2.116667 2.116666 v -0.52917 -0.52917 h -0.529166 -0.529167 v -0.52916 -0.52917 h -0.529167 -0.529166 v -0.52917 -0.52916 h -1.058334 -1.058333 v -0.52917 -0.52917 h 1.5875 1.5875 v -0.52916 -0.52917 h 0.529167 0.529166 v -4.23333 -4.23334 h -3.175 -3.175 v 0.52917 0.52917 h -1.5875 -1.5875 v 0.52916 0.52917 h -0.529167 -0.529166 v 1.05833 1.05834 h -0.529167 -0.529167 v 0.52916 0.52917 h 1.058334 1.058333 v 0.52917 0.52916 h -1.5875 -1.5875 v 1.05834 1.05833 h 0.529167 0.529166 v 1.05833 1.05834 h 0.529167 0.529167 v 0.52916 0.52917 h 0.529166 0.529167 v 0.52917 0.52916 h 0.529167 0.529166 v 0.52917 0.52917 h 0.529167 0.529167 v 0.52916 0.52917 h 0.529166 0.529167 v 1.05833 1.05834 h 0.529167 0.529167 v 0.52916 0.52917 h 0.529166 0.529167 z m -2.116667,-6.87916 v -0.52917 h -1.058333 -1.058334 v -0.52917 -0.52916 h -0.529166 -0.529167 v -0.52917 -0.52917 h 0.529167 0.529166 v 0.52917 0.52917 h 1.058334 1.058333 v 0.52916 0.52917 h 1.058334 1.058333 v 0.52917 0.52916 h -1.058333 -1.058334 z m -2.116667,-5.29167 v -0.52917 h 1.5875 1.587501 v -0.52916 -0.52917 h 0.529166 0.529167 v -0.52917 -0.52916 h 0.529167 0.529166 v 1.05833 1.05833 h -0.529166 -0.529167 v 0.52917 0.52917 h -2.116667 -2.116667 z"
         style="fill:#000000;stroke-width:0.26458332" />
    </g>
  </g>
</svg>
