<?xml version="1.0" encoding="UTF-8" standalone="no"?>
<!-- Created with Inkscape (http://www.inkscape.org/) -->
<svg xmlns:dc="http://purl.org/dc/elements/1.1/" xmlns:cc="http://creativecommons.org/ns#" xmlns:rdf="http://www.w3.org/1999/02/22-rdf-syntax-ns#" xmlns:svg="http://www.w3.org/2000/svg" xmlns="http://www.w3.org/2000/svg" xmlns:inkscape="http://www.inkscape.org/namespaces/inkscape" xmlns:sodipodi="http://sodipodi.sourceforge.net/DTD/sodipodi-0.dtd" xmlns:ns1="http://sozi.baierouge.fr" version="1.1" width="56" height="28" id="svg2" inkscape:version="0.91 r13725" xmlns:xlink="http://www.w3.org/1999/xlink">
  <defs id="defs4"/>
  <metadata id="metadata7">
    <rdf:RDF>
      <cc:Work rdf:about="">
        <dc:format>image/svg+xml</dc:format>
        <dc:type rdf:resource="http://purl.org/dc/dcmitype/StillImage"/>
        <dc:title/>
      </cc:Work>
    </rdf:RDF>
  </metadata>
  <g transform="translate(-401.12845,-489.66989)" id="layer1">
    <g transform="translate(125,30.714286)" id="g3568">
      <path d="m 284.12845,484.9556 0,-2 -2,0 -2,0 0,-2 0,-2 -2,0 -2,0 0,-4 0,-4 2,0 2,0 0,-2 0,-2 4,0 4,0 0,-2 0,-2 12,0 12,0 0,2 0,2 4,0 4,0 0,-2 0,-2 2,0 2,0 0,-2 0,-2 2,0 2,0 0,2 0,2 2,0 2,0 0,10 0,10 -2,0 -2,0 0,2 0,2 -2,0 -2,0 0,-2 0,-2 -2,0 -2,0 0,-2 0,-2 -2,0 -2,0 0,2 0,2 -4,0 -4,0 0,2 0,2 -12,0 -12,0 0,-2 z" id="path3582" style="fill:#98fecb"/>
      <path d="m 284.12845,484.9556 0,-2 -2,0 -2,0 0,-2 0,-2 -2,0 -2,0 0,-4 0,-4 2,0 2,0 0,-2 0,-2 4,0 4,0 0,-2 0,-2 12,0 12,0 0,2 0,2 4,0 4,0 0,-2 0,-2 2,0 2,0 0,-2 0,-2 2,0 2,0 0,2 0,2 2,0 2,0 0,10 0,10 -2,0 -2,0 0,2 0,2 -2,0 -2,0 0,-2 0,-2 -2,0 -2,0 0,-2 0,-2 -2,0 -2,0 0,2 0,2 -4,0 -4,0 0,2 0,2 -12,0 -12,0 0,-2 z m 24,-4 0,-2 4,0 4,0 0,-2 0,-2 -4,0 -4,0 0,2 0,2 -12,0 -12,0 0,2 0,2 12,0 12,0 0,-2 z m 20,0 0,-2 -2,0 -2,0 0,-2 0,-2 -2,0 -2,0 0,2 0,2 2,0 2,0 0,2 0,2 2,0 2,0 0,-2 z" id="path3580" style="fill:#ade07a"/>
      <path d="m 284.12845,484.9556 0,-2 -2,0 -2,0 0,-2 0,-2 -2,0 -2,0 0,-4 0,-4 2,0 2,0 0,-2 0,-2 4,0 4,0 0,-2 0,-2 12,0 12,0 0,2 0,2 4,0 4,0 0,-2 0,-2 2,0 2,0 0,-2 0,-2 2,0 2,0 0,2 0,2 2,0 2,0 0,10 0,10 -2,0 -2,0 0,2 0,2 -2,0 -2,0 0,-2 0,-2 -2,0 -2,0 0,-2 0,-2 -2,0 -2,0 0,2 0,2 -4,0 -4,0 0,2 0,2 -12,0 -12,0 0,-2 z m 24,-4 0,-2 4,0 4,0 0,-2 0,-2 -4,0 -4,0 0,2 0,2 -2,0 -2,0 0,-2 0,-2 -2,0 -2,0 0,2 0,2 -2,0 -2,0 0,-2 0,-2 -4,0 -4,0 0,2 0,2 -2,0 -2,0 0,2 0,2 12,0 12,0 0,-2 z m 20,-2 0,-4 -4,0 -4,0 0,2 0,2 2,0 2,0 0,2 0,2 2,0 2,0 0,-4 z" id="path3578" style="fill:#8fc25c"/>
      <path d="m 284.12845,484.9556 0,-2 -2,0 -2,0 0,-2 0,-2 -2,0 -2,0 0,-4 0,-4 2,0 2,0 0,-2 0,-2 4,0 4,0 0,-2 0,-2 12,0 12,0 0,2 0,2 4,0 4,0 0,-2 0,-2 2,0 2,0 0,-2 0,-2 2,0 2,0 0,2 0,2 2,0 2,0 0,10 0,10 -2,0 -2,0 0,2 0,2 -2,0 -2,0 0,-2 0,-2 -2,0 -2,0 0,-2 0,-2 -2,0 -2,0 0,2 0,2 -4,0 -4,0 0,2 0,2 -12,0 -12,0 0,-2 z m 24,-4 0,-2 4,0 4,0 0,-2 0,-2 -14,0 -14,0 0,2 0,2 -2,0 -2,0 0,2 0,2 12,0 12,0 0,-2 z m 20,-2 0,-4 -4,0 -4,0 0,2 0,2 2,0 2,0 0,2 0,2 2,0 2,0 0,-4 z" id="path3576" style="fill:#538620"/>
      <path d="m 284.12845,484.9556 0,-2 -2,0 -2,0 0,-2 0,-2 -2,0 -2,0 0,-4 0,-4 2,0 2,0 0,-2 0,-2 4,0 4,0 0,-2 0,-2 12,0 12,0 0,2 0,2 4,0 4,0 0,-2 0,-2 2,0 2,0 0,-2 0,-2 2,0 2,0 0,2 0,2 2,0 2,0 0,10 0,10 -2,0 -2,0 0,2 0,2 -2,0 -2,0 0,-2 0,-2 -2,0 -2,0 0,-2 0,-2 -2,0 -2,0 0,2 0,2 -4,0 -4,0 0,2 0,2 -12,0 -12,0 0,-2 z m 24,-4 0,-2 4,0 4,0 0,-2 0,-2 -2,0 -2,0 0,-2 0,-2 -14,0 -14,0 0,2 0,2 -2,0 -2,0 0,2 0,2 2,0 2,0 0,2 0,2 12,0 12,0 0,-2 z m 20,-2 0,-4 -4,0 -4,0 0,2 0,2 2,0 2,0 0,2 0,2 2,0 2,0 0,-4 z" id="path3574" style="fill:#356802"/>
      <path d="m 284.12845,484.9556 0,-2 -2,0 -2,0 0,-2 0,-2 -2,0 -2,0 0,-4 0,-4 2,0 2,0 0,-2 0,-2 4,0 4,0 0,-2 0,-2 12,0 12,0 0,2 0,2 4,0 4,0 0,-2 0,-2 2,0 2,0 0,-2 0,-2 2,0 2,0 0,2 0,2 2,0 2,0 0,10 0,10 -2,0 -2,0 0,2 0,2 -2,0 -2,0 0,-2 0,-2 -2,0 -2,0 0,-2 0,-2 -2,0 -2,0 0,2 0,2 -4,0 -4,0 0,2 0,2 -12,0 -12,0 0,-2 z m 24,-4 0,-2 4,0 4,0 0,-4 0,-4 -2,0 -2,0 0,-2 0,-2 -2,0 -2,0 0,2 0,2 -2,0 -2,0 0,-2 0,-2 -2,0 -2,0 0,2 0,2 -8,0 -8,0 0,2 0,2 -2,0 -2,0 0,2 0,2 2,0 2,0 0,2 0,2 12,0 12,0 0,-2 z m 20,-4 0,-6 -4,0 -4,0 0,4 0,4 2,0 2,0 0,2 0,2 2,0 2,0 0,-6 z" id="path3572" style="fill:#174a00"/>
      <path d="m 284.12845,484.9556 0,-2 -2,0 -2,0 0,-2 0,-2 -2,0 -2,0 0,-4 0,-4 2,0 2,0 0,-2 0,-2 4,0 4,0 0,-2 0,-2 12,0 12,0 0,2 0,2 4,0 4,0 0,-2 0,-2 2,0 2,0 0,-2 0,-2 2,0 2,0 0,2 0,2 2,0 2,0 0,10 0,10 -2,0 -2,0 0,2 0,2 -2,0 -2,0 0,-2 0,-2 -2,0 -2,0 0,-2 0,-2 -2,0 -2,0 0,2 0,2 -4,0 -4,0 0,2 0,2 -12,0 -12,0 0,-2 z m 24,-4 0,-2 4,0 4,0 0,-2 0,-2 2,0 2,0 0,2 0,2 2,0 2,0 0,2 0,2 2,0 2,0 0,-10 0,-10 -2,0 -2,0 0,2 0,2 -2,0 -2,0 0,2 0,2 -4,0 -4,0 0,-2 0,-2 -12,0 -12,0 0,2 0,2 -4,0 -4,0 0,4 0,4 2,0 2,0 0,2 0,2 12,0 12,0 0,-2 z" id="path3570" style="fill:#000000"/>
    </g>
  </g>
</svg>
