<?xml version="1.0" encoding="UTF-8" standalone="no"?>
<!-- Created with Inkscape (http://www.inkscape.org/) -->
<svg xmlns:dc="http://purl.org/dc/elements/1.1/" xmlns:cc="http://creativecommons.org/ns#" xmlns:rdf="http://www.w3.org/1999/02/22-rdf-syntax-ns#" xmlns:svg="http://www.w3.org/2000/svg" xmlns="http://www.w3.org/2000/svg" xmlns:inkscape="http://www.inkscape.org/namespaces/inkscape" xmlns:sodipodi="http://sodipodi.sourceforge.net/DTD/sodipodi-0.dtd" xmlns:ns1="http://sozi.baierouge.fr" version="1.1" width="44" height="44" id="svg2" inkscape:version="0.91 r13725" xmlns:xlink="http://www.w3.org/1999/xlink">
  <defs id="defs4"/>
  <metadata id="metadata7">
    <rdf:RDF>
      <cc:Work rdf:about="">
        <dc:format>image/svg+xml</dc:format>
        <dc:type rdf:resource="http://purl.org/dc/dcmitype/StillImage"/>
        <dc:title/>
      </cc:Work>
    </rdf:RDF>
  </metadata>
  <g transform="translate(-452.84549,-510.35112)" id="layer1">
    <g transform="translate(70.588646,10.047289)" id="g3879">
      <path d="m 386.25684,542.30383 0,-2 -2,0 -2,0 0,-12 0,-12 2,0 2,0 0,-8 0,-8 18,0 18,0 0,8 0,8 2,0 2,0 0,12 0,12 -2,0 -2,0 0,2 0,2 -18,0 -18,0 0,-2 z" id="path3887" style="fill:#686868"/>
      <path d="m 386.25684,542.30383 0,-2 -2,0 -2,0 0,-12 0,-12 2,0 2,0 0,-8 0,-8 18,0 18,0 0,8 0,8 2,0 2,0 0,12 0,12 -2,0 -2,0 0,2 0,2 -18,0 -18,0 0,-2 z m 4,-24 0,-2 2,0 2,0 0,-4 0,-4 -2,0 -2,0 0,4 0,4 -2,0 -2,0 0,2 0,2 2,0 2,0 0,-2 z m 32,0 0,-2 -2,0 -2,0 0,-4 0,-4 -2,0 -2,0 0,4 0,4 2,0 2,0 0,2 0,2 2,0 2,0 0,-2 z" id="path3885" style="fill:#4a4a4a"/>
      <path d="m 386.25684,542.30383 0,-2 -2,0 -2,0 0,-12 0,-12 2,0 2,0 0,-8 0,-8 18,0 18,0 0,8 0,8 2,0 2,0 0,12 0,12 -2,0 -2,0 0,2 0,2 -18,0 -18,0 0,-2 z m 12,-14 0,-8 2,0 2,0 0,-2 0,-2 2,0 2,0 0,2 0,2 2,0 2,0 0,8 0,8 6,0 6,0 0,-10 0,-10 -2,0 -2,0 0,-4 0,-4 -14,0 -14,0 0,4 0,4 -2,0 -2,0 0,10 0,10 6,0 6,0 0,-8 z" id="path3883" style="fill:#2c2c2c"/>
      <path d="m 386.25684,542.30383 0,-2 -2,0 -2,0 0,-12 0,-12 2,0 2,0 0,-8 0,-8 18,0 18,0 0,8 0,8 2,0 2,0 0,12 0,12 -2,0 -2,0 0,2 0,2 -18,0 -18,0 0,-2 z m 16,-12 0,-10 2,0 2,0 0,10 0,10 8,0 8,0 0,-12 0,-12 -2,0 -2,0 0,-6 0,-6 -14,0 -14,0 0,6 0,6 -2,0 -2,0 0,12 0,12 8,0 8,0 0,-10 z" id="path3881" style="fill:#000000"/>
    </g>
  </g>
</svg>
