<?xml version="1.0" encoding="UTF-8" standalone="no"?>
<!-- Created with Inkscape (http://www.inkscape.org/) -->
<svg xmlns:dc="http://purl.org/dc/elements/1.1/" xmlns:cc="http://creativecommons.org/ns#" xmlns:rdf="http://www.w3.org/1999/02/22-rdf-syntax-ns#" xmlns:svg="http://www.w3.org/2000/svg" xmlns="http://www.w3.org/2000/svg" xmlns:inkscape="http://www.inkscape.org/namespaces/inkscape" xmlns:sodipodi="http://sodipodi.sourceforge.net/DTD/sodipodi-0.dtd" xmlns:ns1="http://sozi.baierouge.fr" version="1.1" width="88" height="144" id="svg2" inkscape:version="0.91 r13725" xmlns:xlink="http://www.w3.org/1999/xlink">
  <defs id="defs4"/>
  <metadata id="metadata7">
    <rdf:RDF>
      <cc:Work rdf:about="">
        <dc:format>image/svg+xml</dc:format>
        <dc:type rdf:resource="http://purl.org/dc/dcmitype/StillImage"/>
        <dc:title/>
      </cc:Work>
    </rdf:RDF>
  </metadata>
  <g transform="translate(-30.562669,-326.90984)" id="layer1">
    <g transform="translate(307.77287,25.617111)" id="g3563">
      <g transform="translate(1.551239,5.786075)" id="g3495">
        <path d="m -246.76144,439.50665 -8,0 0,-8 0,-8 -4,0 -4,0 0,-8 0,-8 4,0 4,0 0,-4 0,-4 -8,0 -8,0 0,-12 0,-12 4,0 4,0 0,-8 0,-8 -4,0 -4,0 0,-4 0,-4 -4,0 -4,0 0,-4 0,-4 4,0 4,0 0,-16 0,-16 4,0 4,0 0,-4 0,-4 4,0 4,0 0,-4 0,-4 20,0 20,0 0,4 0,4 4,0 4,0 0,4 0,4 4,0 4,0 0,16 0,16 4,0 4,0 0,4 0,4 -4,0 -4,0 0,4 0,4 -4,0 -4,0 0,8 0,8 4,0 4,0 0,12 0,12 -8,0 -8,0 0,4 0,4 4,0 4,0 0,8 0,8 -4,0 -4,0 0,8 0,8 -8,0 -8,0 0,-8 0,-8 -4,0 -4,0 0,8 0,8 -8,0 z m -4,-104 4,0 0,-4 0,-4 -4,0 -4,0 0,4 0,4 4,0 z m 32,0 4,0 0,-4 0,-4 -4,0 -4,0 0,4 0,4 4,0 z" id="path3521" style="fill:#fef3a8"/>
        <path d="m -246.76144,439.50665 -8,0 0,-4 0,-4 8,0 8,0 0,4 0,4 -8,0 z m 24,0 -8,0 0,-4 0,-4 8,0 8,0 0,4 0,4 -8,0 z m -12,-16 -28,0 0,-8 0,-8 4,0 4,0 0,-8 0,-8 -8,0 -8,0 0,-8 0,-8 4,0 4,0 0,-8 0,-8 -4,0 -4,0 0,-4 0,-4 -4,0 -4,0 0,-4 0,-4 4,0 4,0 0,-16 0,-16 4,0 4,0 0,-4 0,-4 4,0 4,0 0,-4 0,-4 20,0 20,0 0,4 0,4 4,0 4,0 0,4 0,4 4,0 4,0 0,16 0,16 4,0 4,0 0,4 0,4 -4,0 -4,0 0,4 0,4 -4,0 -4,0 0,8 0,8 4,0 4,0 0,8 0,8 -8,0 -8,0 0,8 0,8 4,0 4,0 0,8 0,8 -28,0 z m 0,-56 4,0 0,-4 0,-4 4,0 4,0 0,-4 0,-4 4,0 4,0 0,-4 0,-4 4,0 4,0 0,-8 0,-8 -8,0 -8,0 0,4 0,4 -4,0 -4,0 0,-8 0,-8 4,0 4,0 0,-4 0,-4 -12,0 -12,0 0,4 0,4 4,0 4,0 0,8 0,8 -4,0 -4,0 0,-4 0,-4 -8,0 -8,0 0,8 0,8 4,0 4,0 0,4 0,4 4,0 4,0 0,4 0,4 4,0 4,0 0,4 0,4 4,0 z m 0,-16 -12,0 0,-4 0,-4 12,0 12,0 0,4 0,4 -12,0 z" id="path3519" style="fill:#6efefe"/>
        <path d="m -246.76144,439.50665 -8,0 0,-4 0,-4 8,0 8,0 0,4 0,4 -8,0 z m 24,0 -8,0 0,-4 0,-4 8,0 8,0 0,4 0,4 -8,0 z m -12,-16 -28,0 0,-8 0,-8 4,0 4,0 0,-8 0,-8 -8,0 -8,0 0,-8 0,-8 4,0 4,0 0,-8 0,-8 -4,0 -4,0 0,-4 0,-4 -4,0 -4,0 0,-4 0,-4 4,0 4,0 0,-16 0,-16 4,0 4,0 0,-4 0,-4 4,0 4,0 0,-4 0,-4 20,0 20,0 0,4 0,4 4,0 4,0 0,4 0,4 4,0 4,0 0,16 0,16 4,0 4,0 0,4 0,4 -4,0 -4,0 0,4 0,4 -4,0 -4,0 0,8 0,8 4,0 4,0 0,8 0,8 -8,0 -8,0 0,8 0,8 4,0 4,0 0,8 0,8 -28,0 z m 0,-56 4,0 0,-4 0,-4 4,0 4,0 0,-4 0,-4 4,0 4,0 0,-4 0,-4 4,0 4,0 0,-8 0,-8 -4,0 -4,0 0,-4 0,-4 -4,0 -4,0 0,-4 0,-4 -12,0 -12,0 0,4 0,4 -4,0 -4,0 0,4 0,4 -4,0 -4,0 0,8 0,8 4,0 4,0 0,4 0,4 4,0 4,0 0,4 0,4 4,0 4,0 0,4 0,4 4,0 z m 0,-16 -12,0 0,-4 0,-4 12,0 12,0 0,4 0,4 -12,0 z m -8,-16 -4,0 0,-8 0,-8 4,0 4,0 0,8 0,8 -4,0 z m 16,0 -4,0 0,-8 0,-8 4,0 4,0 0,8 0,8 -4,0 z" id="path3517" style="fill:#fefe65"/>
        <path d="m -246.76144,439.50665 -8,0 0,-4 0,-4 8,0 8,0 0,4 0,4 -8,0 z m 24,0 -8,0 0,-4 0,-4 8,0 8,0 0,4 0,4 -8,0 z m -12,-16 -28,0 0,-8 0,-8 4,0 4,0 0,-8 0,-8 -8,0 -8,0 0,-8 0,-8 4,0 4,0 0,-8 0,-8 -4,0 -4,0 0,-4 0,-4 -4,0 -4,0 0,-4 0,-4 4,0 4,0 0,-16 0,-16 4,0 4,0 0,-4 0,-4 4,0 4,0 0,-4 0,-4 20,0 20,0 0,4 0,4 4,0 4,0 0,4 0,4 4,0 4,0 0,16 0,16 4,0 4,0 0,4 0,4 -4,0 -4,0 0,4 0,4 -4,0 -4,0 0,8 0,8 4,0 4,0 0,8 0,8 -8,0 -8,0 0,8 0,8 4,0 4,0 0,8 0,8 -28,0 z m 0,-56 4,0 0,-4 0,-4 12,0 12,0 0,-4 0,-4 4,0 4,0 0,-4 0,-4 -4,0 -4,0 0,-8 0,-8 -4,0 -4,0 0,-4 0,-4 -4,0 -4,0 0,-8 0,-8 -4,0 -4,0 0,4 0,4 -4,0 -4,0 0,-4 0,-4 -4,0 -4,0 0,8 0,8 -8,0 -8,0 0,12 0,12 -4,0 -4,0 0,4 0,4 4,0 4,0 0,4 0,4 12,0 12,0 0,4 0,4 4,0 z m -24,-16 -4,0 0,-4 0,-4 4,0 4,0 0,4 0,4 -4,0 z m 24,0 -12,0 0,-4 0,-4 12,0 12,0 0,4 0,4 -12,0 z m -8,-16 -4,0 0,-8 0,-8 4,0 4,0 0,8 0,8 -4,0 z m 16,0 -4,0 0,-8 0,-8 4,0 4,0 0,8 0,8 -4,0 z" id="path3515" style="fill:#fe83b6"/>
        <path d="m -246.76144,439.50665 -8,0 0,-4 0,-4 8,0 8,0 0,4 0,4 -8,0 z m 24,0 -8,0 0,-4 0,-4 8,0 8,0 0,4 0,4 -8,0 z m -12,-16 -28,0 0,-8 0,-8 4,0 4,0 0,-8 0,-8 -8,0 -8,0 0,-8 0,-8 4,0 4,0 0,-8 0,-8 -4,0 -4,0 0,-4 0,-4 -4,0 -4,0 0,-4 0,-4 4,0 4,0 0,-16 0,-16 4,0 4,0 0,-4 0,-4 4,0 4,0 0,-4 0,-4 20,0 20,0 0,4 0,4 4,0 4,0 0,4 0,4 4,0 4,0 0,16 0,16 4,0 4,0 0,4 0,4 -4,0 -4,0 0,4 0,4 -4,0 -4,0 0,8 0,8 4,0 4,0 0,8 0,8 -8,0 -8,0 0,8 0,8 4,0 4,0 0,8 0,8 -28,0 z m -8,-8 4,0 0,-4 0,-4 -4,0 -4,0 0,4 0,4 4,0 z m 8,-32 4,0 0,-4 0,-4 4,0 4,0 0,-4 0,-4 -4,0 -4,0 0,-4 0,-4 12,0 12,0 0,-4 0,-4 4,0 4,0 0,-4 0,-4 -4,0 -4,0 0,-8 0,-8 -4,0 -4,0 0,-4 0,-4 -4,0 -4,0 0,-8 0,-8 -4,0 -4,0 0,4 0,4 -4,0 -4,0 0,-4 0,-4 -4,0 -4,0 0,8 0,8 -8,0 -8,0 0,12 0,12 -4,0 -4,0 0,4 0,4 4,0 4,0 0,4 0,4 12,0 12,0 0,4 0,4 -8,0 -8,0 0,4 0,4 8,0 8,0 0,4 0,4 4,0 z m 0,-8 -4,0 0,-4 0,-4 4,0 4,0 0,4 0,4 -4,0 z m -24,-24 -4,0 0,-4 0,-4 4,0 4,0 0,4 0,4 -4,0 z m 24,0 -12,0 0,-4 0,-4 12,0 12,0 0,4 0,4 -12,0 z m -8,-16 -4,0 0,-8 0,-8 4,0 4,0 0,8 0,8 -4,0 z m 16,0 -4,0 0,-8 0,-8 4,0 4,0 0,8 0,8 -4,0 z" id="path3513" style="fill:#feb683"/>
        <path d="m -246.76144,439.50665 -8,0 0,-4 0,-4 8,0 8,0 0,4 0,4 -8,0 z m 24,0 -8,0 0,-4 0,-4 8,0 8,0 0,4 0,4 -8,0 z m -12,-16 -28,0 0,-8 0,-8 4,0 4,0 0,-8 0,-8 -8,0 -8,0 0,-8 0,-8 4,0 4,0 0,-8 0,-8 -4,0 -4,0 0,-4 0,-4 -4,0 -4,0 0,-4 0,-4 4,0 4,0 0,-16 0,-16 4,0 4,0 0,-4 0,-4 4,0 4,0 0,-4 0,-4 20,0 20,0 0,4 0,4 4,0 4,0 0,4 0,4 4,0 4,0 0,16 0,16 4,0 4,0 0,4 0,4 -4,0 -4,0 0,4 0,4 -4,0 -4,0 0,8 0,8 4,0 4,0 0,8 0,8 -8,0 -8,0 0,8 0,8 4,0 4,0 0,8 0,8 -28,0 z m -8,-8 4,0 0,-4 0,-4 -4,0 -4,0 0,4 0,4 4,0 z m 8,-32 4,0 0,-4 0,-4 4,0 4,0 0,-4 0,-4 -4,0 -4,0 0,-4 0,-4 12,0 12,0 0,-4 0,-4 4,0 4,0 0,-4 0,-4 -4,0 -4,0 0,-8 0,-8 -4,0 -4,0 0,-4 0,-4 -4,0 -4,0 0,-8 0,-8 -4,0 -4,0 0,4 0,4 -4,0 -4,0 0,-4 0,-4 -4,0 -4,0 0,8 0,8 -8,0 -8,0 0,12 0,12 -4,0 -4,0 0,4 0,4 4,0 4,0 0,4 0,4 12,0 12,0 0,4 0,4 -8,0 -8,0 0,4 0,4 8,0 8,0 0,4 0,4 4,0 z m 0,-8 -4,0 0,-4 0,-4 4,0 4,0 0,4 0,4 -4,0 z m -24,-24 -4,0 0,-4 0,-4 4,0 4,0 0,4 0,4 -4,0 z m 16,-16 -4,0 0,-8 0,-8 4,0 4,0 0,8 0,8 -4,0 z m 16,0 -4,0 0,-8 0,-8 4,0 4,0 0,8 0,8 -4,0 z" id="path3511" style="fill:#e0e047"/>
        <path d="m -246.76144,439.50665 -8,0 0,-4 0,-4 8,0 8,0 0,4 0,4 -8,0 z m 24,0 -8,0 0,-4 0,-4 8,0 8,0 0,4 0,4 -8,0 z m -12,-16 -28,0 0,-8 0,-8 4,0 4,0 0,-8 0,-8 -8,0 -8,0 0,-8 0,-8 4,0 4,0 0,-8 0,-8 -4,0 -4,0 0,-4 0,-4 -4,0 -4,0 0,-4 0,-4 4,0 4,0 0,-16 0,-16 4,0 4,0 0,-4 0,-4 4,0 4,0 0,-4 0,-4 20,0 20,0 0,4 0,4 4,0 4,0 0,4 0,4 4,0 4,0 0,16 0,16 4,0 4,0 0,4 0,4 -4,0 -4,0 0,4 0,4 -4,0 -4,0 0,8 0,8 4,0 4,0 0,8 0,8 -8,0 -8,0 0,8 0,8 4,0 4,0 0,8 0,8 -28,0 z m -8,-8 4,0 0,-4 0,-4 -4,0 -4,0 0,4 0,4 4,0 z m 8,-32 4,0 0,-4 0,-4 4,0 4,0 0,-4 0,-4 -4,0 -4,0 0,-4 0,-4 12,0 12,0 0,-4 0,-4 4,0 4,0 0,-4 0,-4 -4,0 -4,0 0,-16 0,-16 -8,0 -8,0 0,-4 0,-4 -16,0 -16,0 0,4 0,4 -4,0 -4,0 0,16 0,16 -4,0 -4,0 0,4 0,4 4,0 4,0 0,4 0,4 12,0 12,0 0,4 0,4 -8,0 -8,0 0,4 0,4 8,0 8,0 0,4 0,4 4,0 z m 0,-8 -4,0 0,-4 0,-4 4,0 4,0 0,4 0,4 -4,0 z m -8,-40 -4,0 0,-8 0,-8 4,0 4,0 0,8 0,8 -4,0 z m 16,0 -4,0 0,-8 0,-8 4,0 4,0 0,8 0,8 -4,0 z" id="path3509" style="fill:#fe6598"/>
        <path d="m -246.76144,439.50665 -8,0 0,-4 0,-4 8,0 8,0 0,4 0,4 -8,0 z m 24,0 -8,0 0,-4 0,-4 8,0 8,0 0,4 0,4 -8,0 z m -32,-16 -8,0 0,-8 0,-8 4,0 4,0 0,-4 0,-4 4,0 4,0 0,4 0,4 -4,0 -4,0 0,4 0,4 4,0 4,0 0,4 0,4 -8,0 z m 44,0 -4,0 0,-8 0,-8 -4,0 -4,0 0,4 0,4 -8,0 -8,0 0,-4 0,-4 8,0 8,0 0,-4 0,-4 4,0 4,0 0,4 0,4 4,0 4,0 0,8 0,8 -4,0 z m -52,-32 -8,0 0,-8 0,-8 4,0 4,0 0,-8 0,-8 -4,0 -4,0 0,-4 0,-4 -4,0 -4,0 0,-4 0,-4 4,0 4,0 0,-16 0,-16 4,0 4,0 0,-4 0,-4 4,0 4,0 0,-4 0,-4 20,0 20,0 0,4 0,4 4,0 4,0 0,4 0,4 4,0 4,0 0,16 0,16 4,0 4,0 0,4 0,4 -4,0 -4,0 0,4 0,4 -4,0 -4,0 0,8 0,8 4,0 4,0 0,8 0,8 -8,0 -8,0 0,-4 0,-4 -4,0 -4,0 0,-4 0,-4 4,0 4,0 0,-4 0,-4 -8,0 -8,0 0,-4 0,-4 12,0 12,0 0,-4 0,-4 4,0 4,0 0,-4 0,-4 -4,0 -4,0 0,-16 0,-16 -8,0 -8,0 0,-4 0,-4 -16,0 -16,0 0,4 0,4 -4,0 -4,0 0,16 0,16 -4,0 -4,0 0,4 0,4 4,0 4,0 0,4 0,4 8,0 8,0 0,4 0,4 -4,0 -4,0 0,4 0,4 4,0 4,0 0,4 0,4 -4,0 -4,0 0,4 0,4 -8,0 z m 4,-8 4,0 0,-4 0,-4 -4,0 -4,0 0,4 0,4 4,0 z m 48,0 4,0 0,-4 0,-4 -4,0 -4,0 0,4 0,4 4,0 z m -32,-48 -4,0 0,-8 0,-8 4,0 4,0 0,8 0,8 -4,0 z m 16,0 -4,0 0,-8 0,-8 4,0 4,0 0,8 0,8 -4,0 z" id="path3507" style="fill:#32cbe0"/>
        <path d="m -246.76144,439.50665 -8,0 0,-4 0,-4 8,0 8,0 0,4 0,4 -8,0 z m 24,0 -8,0 0,-4 0,-4 8,0 8,0 0,4 0,4 -8,0 z m -32,-16 -8,0 0,-8 0,-8 4,0 4,0 0,-4 0,-4 4,0 4,0 0,4 0,4 -4,0 -4,0 0,4 0,4 4,0 4,0 0,4 0,4 -8,0 z m 44,0 -4,0 0,-8 0,-8 -4,0 -4,0 0,4 0,4 -8,0 -8,0 0,-4 0,-4 8,0 8,0 0,-4 0,-4 4,0 4,0 0,4 0,4 4,0 4,0 0,8 0,8 -4,0 z m -52,-32 -8,0 0,-8 0,-8 4,0 4,0 0,-8 0,-8 -4,0 -4,0 0,-4 0,-4 -4,0 -4,0 0,-4 0,-4 4,0 4,0 0,-16 0,-16 4,0 4,0 0,-4 0,-4 4,0 4,0 0,-4 0,-4 20,0 20,0 0,4 0,4 4,0 4,0 0,4 0,4 4,0 4,0 0,16 0,16 4,0 4,0 0,4 0,4 -4,0 -4,0 0,4 0,4 -4,0 -4,0 0,8 0,8 4,0 4,0 0,8 0,8 -8,0 -8,0 0,-4 0,-4 -4,0 -4,0 0,-4 0,-4 4,0 4,0 0,-4 0,-4 -8,0 -8,0 0,-4 0,-4 12,0 12,0 0,-4 0,-4 4,0 4,0 0,-4 0,-4 -4,0 -4,0 0,-16 0,-16 -8,0 -8,0 0,-4 0,-4 -16,0 -16,0 0,4 0,4 -4,0 -4,0 0,16 0,16 -4,0 -4,0 0,4 0,4 4,0 4,0 0,4 0,4 8,0 8,0 0,4 0,4 -4,0 -4,0 0,4 0,4 4,0 4,0 0,4 0,4 -4,0 -4,0 0,4 0,4 -8,0 z m 4,-8 4,0 0,-4 0,-4 -4,0 -4,0 0,4 0,4 4,0 z m 48,0 4,0 0,-4 0,-4 -4,0 -4,0 0,4 0,4 4,0 z" id="path3505" style="fill:#c2c229"/>
        <path d="m -246.76144,439.50665 -8,0 0,-4 0,-4 8,0 8,0 0,4 0,4 -8,0 z m 24,0 -8,0 0,-4 0,-4 8,0 8,0 0,4 0,4 -8,0 z m -32,-16 -8,0 0,-8 0,-8 4,0 4,0 0,-4 0,-4 4,0 4,0 0,4 0,4 -4,0 -4,0 0,4 0,4 4,0 4,0 0,4 0,4 -8,0 z m 44,0 -4,0 0,-8 0,-8 -4,0 -4,0 0,4 0,4 -8,0 -8,0 0,-4 0,-4 8,0 8,0 0,-4 0,-4 4,0 4,0 0,4 0,4 4,0 4,0 0,8 0,8 -4,0 z m -52,-32 -8,0 0,-8 0,-8 4,0 4,0 0,-8 0,-8 -4,0 -4,0 0,-4 0,-4 -4,0 -4,0 0,-4 0,-4 4,0 4,0 0,-16 0,-16 4,0 4,0 0,-4 0,-4 4,0 4,0 0,-4 0,-4 20,0 20,0 0,4 0,4 4,0 4,0 0,4 0,4 4,0 4,0 0,16 0,16 4,0 4,0 0,4 0,4 -4,0 -4,0 0,4 0,4 -4,0 -4,0 0,8 0,8 4,0 4,0 0,8 0,8 -8,0 -8,0 0,-4 0,-4 -4,0 -4,0 0,-4 0,-4 4,0 4,0 0,-4 0,-4 -8,0 -8,0 0,-4 0,-4 12,0 12,0 0,-4 0,-4 4,0 4,0 0,-4 0,-4 -4,0 -4,0 0,-16 0,-16 -4,0 -4,0 0,-4 0,-4 -20,0 -20,0 0,4 0,4 -4,0 -4,0 0,16 0,16 -4,0 -4,0 0,4 0,4 4,0 4,0 0,4 0,4 8,0 8,0 0,4 0,4 -4,0 -4,0 0,4 0,4 4,0 4,0 0,4 0,4 -4,0 -4,0 0,4 0,4 -8,0 z m 4,-8 4,0 0,-4 0,-4 -4,0 -4,0 0,4 0,4 4,0 z m 48,0 4,0 0,-4 0,-4 -4,0 -4,0 0,4 0,4 4,0 z" id="path3503" style="fill:#e0477a"/>
        <path d="m -246.76144,439.50665 -8,0 0,-4 0,-4 8,0 8,0 0,4 0,4 -8,0 z m 24,0 -8,0 0,-4 0,-4 8,0 8,0 0,4 0,4 -8,0 z m -32,-16 -8,0 0,-8 0,-8 4,0 4,0 0,4 0,4 4,0 4,0 0,4 0,4 -8,0 z m 44,0 -4,0 0,-8 0,-8 4,0 4,0 0,8 0,8 -4,0 z m -56,-32 -4,0 0,-8 0,-8 4,0 4,0 0,-8 0,-8 -4,0 -4,0 0,-4 0,-4 -4,0 -4,0 0,-4 0,-4 4,0 4,0 0,-16 0,-16 4,0 4,0 0,-4 0,-4 4,0 4,0 0,-4 0,-4 20,0 20,0 0,4 0,4 4,0 4,0 0,4 0,4 4,0 4,0 0,16 0,16 4,0 4,0 0,4 0,4 -4,0 -4,0 0,4 0,4 -4,0 -4,0 0,8 0,8 4,0 4,0 0,8 0,8 -4,0 -4,0 0,-8 0,-8 -4,0 -4,0 0,-4 0,-4 -4,0 -4,0 0,-4 0,-4 8,0 8,0 0,-4 0,-4 4,0 4,0 0,-4 0,-4 -4,0 -4,0 0,-16 0,-16 -4,0 -4,0 0,-4 0,-4 -20,0 -20,0 0,4 0,4 -4,0 -4,0 0,16 0,16 -4,0 -4,0 0,4 0,4 4,0 4,0 0,4 0,4 8,0 8,0 0,4 0,4 -4,0 -4,0 0,4 0,4 -4,0 -4,0 0,8 0,8 -4,0 z" id="path3501" style="fill:#c2295c"/>
        <path d="m -246.76144,439.50665 -8,0 0,-4 0,-4 8,0 8,0 0,4 0,4 -8,0 z m 24,0 -8,0 0,-4 0,-4 8,0 8,0 0,4 0,4 -8,0 z m -36,-64 -4,0 0,-8 0,-8 -4,0 -4,0 0,-4 0,-4 -4,0 -4,0 0,-4 0,-4 4,0 4,0 0,-16 0,-16 4,0 4,0 0,-4 0,-4 4,0 4,0 0,-4 0,-4 20,0 20,0 0,4 0,4 4,0 4,0 0,4 0,4 4,0 4,0 0,16 0,16 4,0 4,0 0,4 0,4 -4,0 -4,0 0,4 0,4 -4,0 -4,0 0,8 0,8 -4,0 -4,0 0,-4 0,-4 -4,0 -4,0 0,-4 0,-4 8,0 8,0 0,-4 0,-4 4,0 4,0 0,-4 0,-4 -4,0 -4,0 0,-16 0,-16 -4,0 -4,0 0,-4 0,-4 -20,0 -20,0 0,4 0,4 -4,0 -4,0 0,16 0,16 -4,0 -4,0 0,4 0,4 4,0 4,0 0,4 0,4 8,0 8,0 0,4 0,4 -4,0 -4,0 0,4 0,4 -4,0 z" id="path3499" style="fill:#a4295c"/>
        <path d="m -246.76144,439.50665 -8,0 0,-4 0,-4 8,0 8,0 0,4 0,4 -8,0 z m 24,0 -8,0 0,-4 0,-4 8,0 8,0 0,4 0,4 -8,0 z m -32,-72 -8,0 0,-4 0,-4 -4,0 -4,0 0,-4 0,-4 -4,0 -4,0 0,-4 0,-4 4,0 4,0 0,-16 0,-16 4,0 4,0 0,-4 0,-4 4,0 4,0 0,-4 0,-4 20,0 20,0 0,4 0,4 4,0 4,0 0,4 0,4 4,0 4,0 0,16 0,16 4,0 4,0 0,4 0,4 -4,0 -4,0 0,4 0,4 -4,0 -4,0 0,4 0,4 -8,0 -8,0 0,-4 0,-4 8,0 8,0 0,-4 0,-4 4,0 4,0 0,-4 0,-4 -4,0 -4,0 0,-16 0,-16 -4,0 -4,0 0,-4 0,-4 -20,0 -20,0 0,4 0,4 -4,0 -4,0 0,16 0,16 -4,0 -4,0 0,4 0,4 4,0 4,0 0,4 0,4 8,0 8,0 0,4 0,4 -8,0 z" id="path3497" style="fill:#000000"/>
      </g>
      <path d="m -253.21606,337.27108 0,-4.00669 4.00478,0 4.00477,0 0,4.00669 0,4.0067 -4.00477,0 -4.00478,0 0,-4.0067 z" id="path3525" style="fill:#ffffff;fill-opacity:1;stroke:none"/>
      <path d="m -221.20713,337.25992 0,-4.01786 3.99553,0 3.99554,0 0,4.01786 0,4.01786 -3.99554,0 -3.99553,0 0,-4.01786 z" id="path3527" style="fill:#ffffff;fill-opacity:1;stroke:none"/>
    </g>
  </g>
</svg>
